<?xml version="1.0" encoding="utf-8" ?>
<svg baseProfile="full" height="200mm" version="1.1" viewBox="0,0,200,200" width="200mm" xmlns="http://www.w3.org/2000/svg" xmlns:ev="http://www.w3.org/2001/xml-events" xmlns:xlink="http://www.w3.org/1999/xlink"><defs /><rect fill="#1a1a1a" height="200" width="200" x="0" y="0" /><text alignment-baseline="middle" fill="#e1ed5e" style="dominant-baseline: central; font-size:9.0px; font-family:Arial;" text-anchor="middle" x="100.0" y="100.0">2024</text><line stroke="#e1ed5e" stroke-width="0.3" x1="100.0" x2="100.0" y1="15.0" y2="10.0" /><path d="M 100.0 14.0 a86.0,86.0 0 0,1 42.35913384403234,11.155469271406648" fill="none" id="id37" stroke="none" /><text fill="#e1ed5e" style="font-size:6.75px; font-family:Arial;" text-anchor="middle"><textPath startOffset="22.145653131862478" xlink:href="#id37">January</textPath></text><path d="M 100.36049292484886 79.00309439819443 l 0.260991685024185 -15.201457214747313 a36.203697514468146,36.203697514468146 0 0,0 0.6213014555059292,0.016002521585845853 l -0.5219064546008556 15.194736975811422" fill="#ffc812" stroke="none" /><path d="M 101.80034050326958 79.07731436759882 l 0.5812141551004636 -6.754589495811478 a27.779549332442084,27.779549332442084 0 0,0 0.47476630401814457,0.04496086260318345 l -0.6970800225036211 6.743616877703111" fill="#ff5908" stroke="none" /><path d="M 102.87502721639298 79.19773525538626 l 1.0100290240077803 -7.308066872324782 a28.377533465848124,28.377533465848124 0 0,0 0.4819787500974214,0.07083427841451448 l -1.1353328797128837 7.289651520611386" fill="#ff6108" stroke="none" /><path d="M 105.69591212413111 79.78721728523813 l 1.718774400668091 -6.099323995750518 a27.336871360973806,27.336871360973806 0 0,0 0.4505897292577688,0.13116010322186067 l -1.8232241423074642 6.068920198226141" fill="#ff5307" stroke="none" /><path d="M 106.04205211174951 79.88797359093562 l 1.7505633728354835 -5.82705612828844 a27.08432866013474,27.08432866013474 0 0,0 0.4441305845952747,0.13759279040140035 l -1.8503345903023884 5.796146750080393" fill="#ff4f07" stroke="none" /><line stroke="#e1ed5e" stroke-width="0.3" x1="143.13028292997686" x2="145.6673583964461" y1="26.7553504044142" y2="22.446841604673864" /><path d="M 143.63769802327073 25.89364864446614 a86.0,86.0 0 0,1 29.32050498858742,28.57503671076993" fill="none" id="id38" stroke="none" /><text fill="#e1ed5e" style="font-size:6.75px; font-family:Arial;" text-anchor="middle"><textPath startOffset="20.669276256404974" xlink:href="#id38">February</textPath></text><path d="M 111.5731344415666 82.4767994020092 l 6.558841423760782 -9.930921872485733 a32.901328079649595,32.901328079649595 0 0,0 0.4686147311981697,0.31530490476110234 l -6.728352443055953 9.816867293667512" fill="#ff9d0e" stroke="none" /><path d="M 113.86319453409587 84.22622945171908 l 0.3149555819397589 -0.35836163664871007 a21.47709546342064,21.47709546342064 0 0,0 0.27484031777495943,0.24576390690386718 l -0.3210609265380939 0.35290219986145593" fill="#ff0000" stroke="none" /><path d="M 116.35404254752997 86.82634096563983 l 9.04615765667647 -7.2869442643171665 a32.61604601664057,32.61604601664057 0 0,0 0.3474906854124831,0.43904312939359 l -9.169914772730513 7.130581191008899" fill="#ff9a0e" stroke="none" /><line stroke="#e1ed5e" stroke-width="0.3" x1="172.87174338648825" x2="177.1583165268699" y1="56.24261187166439" y2="53.66864786411523" /><path d="M 173.72905801456457 55.72781907015455 a86.0,86.0 0 0,1 12.242430191666344,42.057860355516425" fill="none" id="id39" stroke="none" /><text fill="#e1ed5e" style="font-size:6.75px; font-family:Arial;" text-anchor="middle"><textPath startOffset="22.145653131862474" xlink:href="#id39">March</textPath></text><path d="M 118.70294669586156 90.45014215332178 l 7.296857767179377 -3.7258275680918267 a29.193041214445284,29.193041214445284 0 0,0 0.22406366269322048,0.4482774196836811 l -7.359741343084334 3.6000182922443953" fill="#ff6c0a" stroke="none" /><path d="M 120.16314734710363 94.1308016681162 l 17.39022626987531 -5.062041419287427 a39.11199141585604,39.11199141585604 0 0,0 0.18211569040992412,0.6462643381750197 l -17.474560452359817 4.7627691572093935" fill="#ffec16" stroke="none" /><path d="M 120.7213421655516 96.59031103205396 l 17.511021541754012 -2.8814319309704213 a38.74650741437844,38.74650741437844 0 0,0 0.10236182934301716,0.6572363738039351 l -17.557904863235294 2.580407375235045" fill="#ffe715" stroke="none" /><path d="M 120.99303781780057 99.45929381324524 l 2.4673306844478295 -0.06354968620689959 a23.46814895600626,23.46814895600626 0 0,0 0.006915916431759008,0.40281746036618055 l -2.468058032478255 0.02118530987165265" fill="#ff1d02" stroke="none" /><line stroke="#e1ed5e" stroke-width="0.3" x1="184.99686870605535" x2="189.99668451229388" y1="99.2704041080226" y2="99.22748670261217" /><path d="M 185.99683186730306 99.26182062694052 a86.0,86.0 0 0,1 -10.086455211305974,41.156179273409016" fill="none" id="id40" stroke="none" /><text fill="#e1ed5e" style="font-size:6.75px; font-family:Arial;" text-anchor="middle"><textPath startOffset="21.40746469413373" xlink:href="#id40">April</textPath></text><path d="M 120.51834098615036 104.47187691870673 l 9.088740837191008 1.9808487634246714 a30.302095023659163,30.302095023659163 0 0,0 -0.11513228833026475,0.5072941057159969 l -9.053397687303079 -2.136577203079685" fill="#ff7b0b" stroke="none" /><path d="M 119.0197475246899 108.90220220490707 l 10.828269667399956 5.068176955731062 a32.955661489208254,32.955661489208254 0 0,0 -0.2442183093034543,0.5103223382126217 l -10.73967210013659 -5.253311796008787" fill="#ff9e0e" stroke="none" /><line stroke="#e1ed5e" stroke-width="0.3" x1="174.33088141563837" x2="178.70328620479359" y1="141.23008692659167" y2="143.65538615756765" /><path d="M 175.20536237346943 141.71514677278685 a86.0,86.0 0 0,1 -30.301960400862466,31.631185727798858" fill="none" id="id41" stroke="none" /><text fill="#e1ed5e" style="font-size:6.75px; font-family:Arial;" text-anchor="middle"><textPath startOffset="22.145653131862474" xlink:href="#id41">May</textPath></text><path d="M 117.62189284568427 111.42229804090321 l 6.461004974365314 4.187945364736053 a28.699576069939663,28.699576069939663 0 0,0 -0.2715192561158356,0.411114760236982 l -6.388161279328751 -4.298240003312095" fill="#ff6509" stroke="none" /><path d="M 116.35404254752997 113.17365903436017 l 9.487459500618668 7.6424257916785425 a33.1827156150504,33.1827156150504 0 0,0 -0.36114358095808713,0.4405364476439925 l -9.354869100421952 -7.804164521021028" fill="#ffa10e" stroke="none" /><path d="M 114.91283532996324 114.78537596483092 l 13.042108179246604 12.930637838983817 a39.365673978434096,39.365673978434096 0 0,0 -0.4799014575242248,0.4757997603118085 l -12.818214801592415 -13.152617609524288" fill="#ffef16" stroke="none" /><path d="M 112.45986205192187 116.90419585922612 l 3.2086611281747883 4.353165061581546 a26.407915706520782,26.407915706520782 0 0,0 -0.3672196601308392,0.2658387147620617 l -3.133460457669981 -4.407604547716685" fill="#ff4606" stroke="none" /><path d="M 111.5731344415666 117.5232005979908 l 5.073248843489253 7.681545359802548 a30.205650055409944,30.205650055409944 0 0,0 -0.43512586327516,0.2820433275334227 l -4.940637347957083 -7.767502529039865" fill="#ff7a0b" stroke="none" /><line stroke="#e1ed5e" stroke-width="0.3" x1="143.1302829299769" x2="145.66735839644613" y1="173.24464959558577" y2="177.55315839532614" /><path d="M 143.63769802327073 174.10635135553383 a86.0,86.0 0 0,1 -40.68552437913181,11.842963189579606" fill="none" id="id42" stroke="none" /><text fill="#e1ed5e" style="font-size:6.75px; font-family:Arial;" text-anchor="middle"><textPath startOffset="21.407464694133747" xlink:href="#id42">June</textPath></text><path d="M 110.34350942703117 118.27599006163325 l 6.7713008602731 11.964239806585626 a34.747492480078805,34.747492480078805 0 0,0 -0.5216356643498689,0.28934250980953063 l -6.564921007767137 -12.078715231828301" fill="#ffb510" stroke="none" /><path d="M 107.74402155503746 119.51999308798841 l 3.5196948974977853 8.87193037657453 a30.544600608629878,30.544600608629878 0 0,0 -0.48904485503230427,0.18917305580653695 l -3.3668777799719516 -8.931043320519109" fill="#ff7e0b" stroke="none" /><path d="M 104.29559338865022 120.5559693870025 l 1.6761237159527196 8.02085874444914 a29.194117750532108,29.194117750532108 0 0,0 -0.4914392012683868,0.09830160381121861 l -1.538188029153374 -8.048449744923218" fill="#ff6c0a" stroke="none" /><path d="M 102.51750503828377 120.84855314841334 l 1.253304946025969 10.379162854110833 a31.454558567433025,31.454558567433025 0 0,0 -0.5366209078907737,0.06012949201326395 l -1.0749481365343962 -10.399148106631067" fill="#ff8a0c" stroke="none" /><line stroke="#e1ed5e" stroke-width="0.3" x1="101.45913802915013" x2="101.54496967792366" y1="184.9874750549273" y2="189.98673829345242" /><path d="M 101.47630435890484 185.9873277026323 a86.0,86.0 0 0,1 -42.54439059252881,-10.42667462771756" fill="none" id="id43" stroke="none" /><text fill="#e1ed5e" style="font-size:6.75px; font-family:Arial;" text-anchor="middle"><textPath startOffset="22.145653131862474" xlink:href="#id43">July</textPath></text><path d="M 98.55909050195518 120.95050786540614 l -0.41318602985123837 6.007634192168422 a27.02182624144664,27.02182624144664 0 0,0 -0.46249915090343185,-0.035800359328985815 l 0.5162541755299064 -5.999656065844383" fill="#ff4e07" stroke="none" /><path d="M 98.19965949673042 120.92268563240118 l -0.497258315054591 5.778895372897586 a26.800249784516875,26.800249784516875 0 0,0 -0.4580295880501789,-0.0433758781999194 l 0.5963874664897851 -5.769507739192483" fill="#ff4b07" stroke="none" /><path d="M 97.48249496171623 120.84855314841334 l -0.723425816357703 5.991003534018673 a27.034523034705977,27.034523034705977 0 0,0 -0.4602591218815039,-0.05958975803619706 l 0.8261627601300009 -5.977702179782079" fill="#ff4f07" stroke="none" /><path d="M 96.76829788921471 120.74984581791261 l -0.34080987342925956 2.1882438679229144 a23.21462470755862,23.21462470755862 0 0,0 -0.3932363936504189,-0.06470689893117765 l 0.37832377013274204 -2.1820709704960684" fill="#ff1902" stroke="none" /><path d="M 93.61358852112213 120.00534299687104 l -5.402532137643882 16.92335497370346 a38.76477686502841,38.76477686502841 0 0,0 -0.6321930788776674,-0.20781442197719666 l 5.692247954169293 -16.82811963032424" fill="#ffe715" stroke="none" /><path d="M 91.92203290615298 119.3841803445677 l -6.1121294334720675 14.666885597740055 a36.88948266460272,36.88948266460272 0 0,0 -0.5824408831757468,-0.2486093789519641 l 6.363005391818246 -14.559801569128688" fill="#ffd013" stroke="none" /><path d="M 91.26138138417905 119.09545874513695 l -0.8911373790935635 1.9472959980107765 a23.141515242132666,23.141515242132666 0 0,0 -0.3598079002224408,-0.16840826507003867 l 0.9244339931874942 -1.931711501370211" fill="#ff1802" stroke="none" /><line stroke="#e1ed5e" stroke-width="0.3" x1="58.13341422392154" x2="55.67067388415222" y1="173.97424548756322" y2="178.32567169271397" /><path d="M 57.64086615596768 174.84453072859336 a86.0,86.0 0 0,1 -31.369924170532247,-30.572349798747897" fill="none" id="id44" stroke="none" /><text fill="#e1ed5e" style="font-size:6.75px; font-family:Arial;" text-anchor="middle"><textPath startOffset="22.145653131862474" xlink:href="#id44">August</textPath></text><path d="M 89.03521579738668 117.91015095944536 l -1.1522773273628826 1.8821584172442514 a23.206867315168253,23.206867315168253 0 0,0 -0.33797583254266794,-0.21092191609112002 l 1.184417288695263 -1.8621007043115838" fill="#ff1902" stroke="none" /><path d="M 88.72937992617639 117.7192867562869 l -0.4509516863958755 0.7089709520985435 a21.840236415768086,21.840236415768086 0 0,0 -0.31461834812731027,-0.20393181214507927 l 0.4630556667801955 -0.7011252982495696" fill="#ff0500" stroke="none" /><path d="M 88.4268655584334 117.5232005979908 l -3.568269940506309 5.402815483651177 a27.474794631391934,27.474794631391934 0 0,0 -0.3913244313343709,-0.2633005416562516 l 3.660490659937686 -5.340765267937805" fill="#ff5507" stroke="none" /><path d="M 86.96720088162412 116.46651593811092 l -5.072672759883444 6.409156320967761 a29.17369522770849,29.17369522770849 0 0,0 -0.39002345052712056,-0.3141752834332052 l 5.181946980765827 -6.3211327437411455" fill="#ff6c09" stroke="none" /><line stroke="#e1ed5e" stroke-width="0.3" x1="26.387840678322732" x2="22.057713659400548" y1="142.50000000000003" y2="145.00000000000006" /><path d="M 25.521815274538298 143.00000000000003 a86.0,86.0 0 0,1 -11.493303480769221,-40.785679425670985" fill="none" id="id45" stroke="none" /><text fill="#e1ed5e" style="font-size:6.75px; font-family:Arial;" text-anchor="middle"><textPath startOffset="21.40746469413373" xlink:href="#id45">September</textPath></text><path d="M 80.68587082218212 108.24405325689762 l -7.485248536397886 3.1950074997971516 a29.13861281640838,29.13861281640838 0 0,0 -0.1924177392235129,-0.4617325269180159 l 7.538992120157884 -3.0660424634378542" fill="#ff6b09" stroke="none" /><path d="M 79.73907114497094 105.5222062557868 l -9.441193781350382 2.5732393482309455 a30.785586377948597,30.785586377948597 0 0,0 -0.13459241281381962,-0.5110693140794266 l 9.483975674968935 -2.4107895297787163" fill="#ff810b" stroke="none" /><path d="M 79.06263194458094 101.62068470465958 l -8.844421833251383 0.6846141859266666 a29.870878995232985,29.870878995232985 0 0,0 -0.03518510585046166,-0.5115837169964498 l 8.85487090026691 -0.5326870447758735" fill="#ff750a" stroke="none" /><line stroke="#e1ed5e" stroke-width="0.3" x1="15.003131293944662" x2="10.003315487706104" y1="100.72959589197737" y2="100.7725132973878" /><path d="M 14.003168132696942 100.73817937305945 a86.0,86.0 0 0,1 10.791469493833604,-42.45332614584628" fill="none" id="id46" stroke="none" /><text fill="#e1ed5e" style="font-size:6.75px; font-family:Arial;" text-anchor="middle"><textPath startOffset="22.145653131862435" xlink:href="#id46">October</textPath></text><path d="M 79.00696218219943 99.45929381324524 l -22.173089390378507 -0.5711001293332644 a43.18044292775598,43.18044292775598 0 0,0 0.025446261754553095,-0.7408401466769633 l 22.160018441627102 0.9516465405743662" fill="#e2ff1b" stroke="none" /><path d="M 79.2786578344484 96.59031103205396 l -14.624135542330023 -2.4063959383541627 a35.82079895864483,35.82079895864483 0 0,0 0.10504906864010118,-0.6058951122124486 l 14.580671656197687 2.657084083487204" fill="#ffc312" stroke="none" /><path d="M 79.407916724674 95.88100663000787 l -2.0852005008569123 -0.4170984996173448 a23.126507062569264,23.126507062569264 0 0,0 0.08120959863953837,-0.3886173276958329 l 2.077733191393007 0.4528322785985868" fill="#ff1802" stroke="none" /><path d="M 79.94057633289273 93.78553927170692 l -13.245047767951116 -4.1033496557166025 a34.86610142658622,34.86610142658622 0 0,0 0.18202642569727426,-0.5701951859212596 l 13.172656626476584 4.330113875329253" fill="#ffb710" stroke="none" /><path d="M 80.41425534168474 92.42381321644754 l -3.924895760252118 -1.5182339964295737 a25.20830621470914,25.20830621470914 0 0,0 0.15958217285918747,-0.40225132239607386 l 3.898254912426799 1.5853863360392304" fill="#ff3505" stroke="none" /><path d="M 80.83023694016515 91.42560881287825 l -2.719754058204512 -1.21651139635986 a23.97942311775171,23.97942311775171 0 0,0 0.17129933292746602,-0.3743199570540584 l 2.698470260421999 1.2630203356285896" fill="#ff2403" stroke="none" /><path d="M 81.46374523516351 90.13048839642627 l -15.52095231839311 -8.264032888428343 a38.58391880244156,38.58391880244156 0 0,0 0.3163048119954298,-0.581965227918148 l 15.376802156782329 8.52925294982111" fill="#ffe515" stroke="none" /><line stroke="#e1ed5e" stroke-width="0.3" x1="26.387840678322718" x2="22.05771365940052" y1="57.49999999999999" y2="54.99999999999999" /><path d="M 25.521815274538284 56.99999999999999 a86.0,86.0 0 0,1 29.574782752854787,-30.34633250058573" fill="none" id="id47" stroke="none" /><text fill="#e1ed5e" style="font-size:6.75px; font-family:Arial;" text-anchor="middle"><textPath startOffset="21.40746469413373" xlink:href="#id47">November</textPath></text><path d="M 82.37810715431573 88.57770195909679 l -2.5665845012983093 -1.6636290651473347 a24.058597336804517,24.058597336804517 0 0,0 0.22761215831761392,-0.3446338179928132 l 2.537647904059966 1.707442761479209" fill="#ff2503" stroke="none" /><path d="M 82.98947788004972 87.6856937992154 l -1.5129820758922568 -1.0952823450953793 a22.86782177347007,22.86782177347007 0 0,0 0.23292289970773447,-0.3160046475916727 l 1.4939571566007035 1.1210933019559153" fill="#ff1402" stroke="none" /><path d="M 88.12776184653039 82.6780497279521 l -8.073210253049103 -11.77905503001009 a35.28015620327534,35.28015620327534 0 0,0 0.5024964608056038,-0.3381020445345358 l 7.869817504146511 11.915906748601735" fill="#ffbc11" stroke="none" /><path d="M 89.03521579738668 82.08984904055464 l -7.347286857180077 -12.001240911160012 a35.071688156343996,35.071688156343996 0 0,0 0.5161671419694533,-0.30994353806607233 l 7.140186958653189 12.125598449762007" fill="#ffb911" stroke="none" /><line stroke="#e1ed5e" stroke-width="0.3" x1="56.869717070023135" x2="54.33264160355391" y1="26.7553504044142" y2="22.446841604673864" /><path d="M 56.362301976729285 25.89364864446614 a86.0,86.0 0 0,1 42.16139366436587,-11.88097634709845" fill="none" id="id48" stroke="none" /><text fill="#e1ed5e" style="font-size:6.75px; font-family:Arial;" text-anchor="middle"><textPath startOffset="22.145653131862474" xlink:href="#id48">December</textPath></text><path d="M 89.65649057296885 81.72400993836675 l -3.868423607938157 -6.835133850035818 a28.85390068426885,28.85390068426885 0 0,0 0.4331599945277316,-0.24026654719236412 l 3.7505194252543226 6.900533312661327" fill="#ff6709" stroke="none" /><path d="M 89.97174638481275 81.54914285379989 l -1.9693220769457906 -3.6233308122120516 a25.123924783197594,25.123924783197594 0 0,0 0.38070065987384066,-0.2027016583328744 l 1.9068326012853882 3.6566029382675014" fill="#ff3404" stroke="none" /><path d="M 90.28995756902619 81.37971332152246 l -3.1476902461434957 -6.036111085496186 a27.80753927069957,27.80753927069957 0 0,0 0.4251544709977227,-0.21708690223698085 l 3.0436085534321906 6.0892559394060015" fill="#ff5908" stroke="none" /><path d="M 90.61103034731259 81.2157712731953 l -2.5990597401548983 -5.199860521407169 a26.81323154321096,26.81323154321096 0 0,0 0.4134852485443949,-0.2022563550731017 l 2.5094142423484502 5.243710626577485" fill="#ff4c07" stroke="none" /><path d="M 90.93487009805054 81.0573650232925 l -1.1048786975278688 -2.308771533026744 a23.55952787208218,23.55952787208218 0 0,0 0.3663072260044412,-0.17145027770621085 l 1.065082757651905 2.3273980423034977" fill="#ff1e03" stroke="none" /><path d="M 91.26138138417902 80.90454125486306 l -6.636697374857132 -14.502381497242732 a36.94881880068251,36.94881880068251 0 0,0 0.5790171927438544,-0.25898702551296393 l 6.386766779257659 14.614172273665542" fill="#ffd113" stroke="none" /><path d="M 91.5904679813234 80.7573450057729 l -1.8588657652971354 -4.253448648837148 a25.641896955091557,25.641896955091557 0 0,0 0.4048549350667849,-0.17280849761746653 l 1.7855757550599196 4.284731796114019" fill="#ff3b05" stroke="none" /><path d="M 91.92203290615298 80.6158196554323 l -1.804527188000857 -4.3302083361453505 a25.69116431247691,25.69116431247691 0 0,0 0.40854522423690565,-0.16615178604522357 l 1.7299275025735106 4.360547378769866" fill="#ff3c05" stroke="none" /><path d="M 92.25597844496254 80.48000691201159 l -1.788272857125076 -4.507615786246332 a25.849383454414326,25.849383454414326 0 0,0 0.4138704626102345,-0.1600939858878005 l 1.7106301320213122 4.537649660272174" fill="#ff3e05" stroke="none" /><path d="M 94.6519064749342 79.69241777938228 l -3.5477695335821147 -13.471458785331333 a34.93078858027406,34.93078858027406 0 0,0 0.5811729825433889,-0.1477318995032611 l 3.315991257813348 13.530375916669856" fill="#ffb711" stroke="none" /><path d="M 95.70440661134978 79.44403061299748 l -12.886780165950631 -61.667908161007546 a84.0,84.0 0 0,0 1.4140140578760931,-0.28284241334853544 l 11.826269622543562 61.88003997101895" fill="#4dd2ff" stroke="none" /><path d="M 96.41257539226777 79.30868818359171 l -0.3509652886428157 -2.02427451949571 a23.054474133230137,23.054474133230137 0 0,0 0.3905235764033794,-0.06426050588552702 l 0.31616420918636334 2.0300010238769053" fill="#ff1702" stroke="none" /></svg>