<?xml version="1.0" encoding="utf-8" ?>
<svg baseProfile="full" height="200mm" version="1.1" viewBox="0,0,200,200" width="200mm" xmlns="http://www.w3.org/2000/svg" xmlns:ev="http://www.w3.org/2001/xml-events" xmlns:xlink="http://www.w3.org/1999/xlink"><defs /><rect fill="#1a1a1a" height="200" width="200" x="0" y="0" /><text alignment-baseline="middle" fill="#e1ed5e" style="dominant-baseline: central; font-size:9.0px; font-family:Arial;" text-anchor="middle" x="100.0" y="100.0">2026</text><line stroke="#e1ed5e" stroke-width="0.3" x1="100.0" x2="100.0" y1="15.0" y2="10.0" /><path d="M 100.0 14.0 a86.0,86.0 0 0,1 42.46469731375804,11.215312516191453" fill="none" id="id61" stroke="none" /><text fill="#e1ed5e" style="font-size:6.75px; font-family:Arial;" text-anchor="middle"><textPath startOffset="22.20632615414155" xlink:href="#id61">January</textPath></text><path d="M 101.44485096284872 79.0497635885617 l 2.1185216943861094 -30.718414204217822 a51.79138037489511,51.79138037489511 0 0,0 0.888862933027567,0.06899287080405689 l -2.6469748167760176 30.6773960712253" fill="#8cff24" stroke="none" /><path d="M 105.36241919743992 79.69619591428918 l 1.7251746160219774 -6.532053188619451 a27.756030366622113,27.756030366622113 0 0,0 0.46088506550532904,0.12597729843681862 l -1.8373575707510172 6.501389349356339" fill="#ff4106" stroke="none" /><path d="M 105.71112130821622 79.79150937346287 l 10.257324597689621 -36.29498250852279 a58.71655423280796,58.71655423280796 0 0,0 0.9702485095408225,0.28324214590090574 l -10.88056332495387 36.11304203370318" fill="#42ff2d" stroke="none" /><line stroke="#e1ed5e" stroke-width="0.3" x1="143.23703022742887" x2="145.7803849466894" y1="26.81831364943548" y2="22.513508569990506" /><path d="M 143.74570117128098 25.957352633546492 a86.0,86.0 0 0,1 28.547481713284135,27.462654790039103" fill="none" id="id62" stroke="none" /><text fill="#e1ed5e" style="font-size:6.75px; font-family:Arial;" text-anchor="middle"><textPath startOffset="19.985693538727396" xlink:href="#id62">February</textPath></text><path d="M 111.2981086023043 82.29822771554956 l 4.902796309121684 -7.6816560077511875 a30.112916693910744,30.112916693910744 0 0,0 0.4345336527650464,0.28263277509830076 l -5.034296987671011 7.5961243084933585" fill="#ff6209" stroke="none" /><path d="M 111.90073688211348 82.69761687909136 l 2.071371817226363 -3.01155038738563 a24.6551356939192,24.6551356939192 0 0,0 0.3476008537290052,0.24351661174432165 l -2.122903810539019 2.9754489328773728" fill="#ff1402" stroke="none" /><path d="M 112.48926042617603 83.11751280151076 l 10.628410342425012 -14.367063815100556 a38.87108360100581,38.87108360100581 0 0,0 0.5344845189223749,0.4025626586261939 l -10.87414101510577 14.181984566968515" fill="#ffd814" stroke="none" /><path d="M 113.34407831869373 83.78471172551755 l 25.77071925718346 -31.3157365998503 a61.55619964720277,61.55619964720277 0 0,0 0.8123731802696231,0.6803391758738451 l -26.305949974412197 30.867496266582634" fill="#31ff3b" stroke="none" /><path d="M 114.42810811169701 84.74124197986012 l 43.28432433509102 -45.77627406041963 a84.0,84.0 0 0,0 1.042067025550327,1.0024676529507923 l -44.06587460425377 45.02442332070654" fill="#4dd2ff" stroke="none" /><line stroke="#e1ed5e" stroke-width="0.3" x1="172.23445277983987" x2="176.4835382374775" y1="55.19839476539836" y2="52.563006222186495" /><path d="M 173.08426987136738 54.67131705675599 a86.0,86.0 0 0,1 12.851231095245387,41.99856678651699" fill="none" id="id63" stroke="none" /><text fill="#e1ed5e" style="font-size:6.75px; font-family:Arial;" text-anchor="middle"><textPath startOffset="22.20632615414155" xlink:href="#id63">March</textPath></text><path d="M 118.89224826269711 90.83032412892265 l 11.390696960350217 -5.5286696225728065 a33.66152301415951,33.66152301415951 0 0,0 0.24852111076917058,0.5234488400649661 l -11.484176264961144 5.3317783668673" fill="#ff930d" stroke="none" /><path d="M 119.7369772167798 92.82701384747503 l 37.898674899530185 -13.773470337811379 a61.32391404969078,61.32391404969078 0 0,0 0.3520194719702028,0.9952064507116617 l -38.1301474523102 13.119066260673103" fill="#30ff38" stroke="none" /><path d="M 119.97218684219823 93.5106431181261 l 4.366815606140924 -1.418864400252424 a25.591541650071314,25.591541650071314 0 0,0 0.13252094363632416,0.4201276059406404 l -4.390592033545455 1.3434866278853645" fill="#ff2203" stroke="none" /><path d="M 120.6074358757038 95.95851677861258 l 29.15669815553954 -5.718144998602184 a50.71212260270683,50.71212260270683 0 0,0 0.16062286304350035,0.8580537571022864 l -29.250806742492898 5.215413164037334" fill="#98ff23" stroke="none" /><line stroke="#e1ed5e" stroke-width="0.3" x1="184.98032266829074" x2="189.97916517819016" y1="98.17113171792111" y2="98.06355123074" /><path d="M 185.9800911702706 98.14961562048488 a86.0,86.0 0 0,1 -9.607161424134198,41.387399972396054" fill="none" id="id64" stroke="none" /><text fill="#e1ed5e" style="font-size:6.75px; font-family:Arial;" text-anchor="middle"><textPath startOffset="21.466115282336823" xlink:href="#id64">April</textPath></text><path d="M 120.8583938346157 102.4346265915055 l 25.414812281302364 2.966459368290067 a46.5873516503282,46.5873516503282 0 0,0 -0.09982669106910136,0.795716948178217 l -25.359984080986415 -3.403494070755679" fill="#c7ff1e" stroke="none" /><path d="M 120.13307415673323 105.97154293290107 l 5.340368631341907 1.5839727361710987 a26.57032375608043,26.57032375608043 0 0,0 -0.13382994758274297,0.43736401204934855 l -5.312311911253032 -1.6756637207725043" fill="#ff3004" stroke="none" /><path d="M 120.02730092923936 106.31721596034902 l 13.169731762844012 4.154131401914947 a34.80936792216205,34.80936792216205 0 0,0 -0.1851655301967611,0.569880903938903 l -13.096273981631004 -4.380211205831645" fill="#ffa30f" stroke="none" /><path d="M 119.26925614724726 108.34839909993367 l 17.284959630456267 7.48870326485879 a39.837476105243226,39.837476105243226 0 0,0 -0.2780255850013468,0.6268742975671633 l -17.153492960723646 -7.785125898918641" fill="#ffe415" stroke="none" /><path d="M 118.64920377521936 109.65438752849418 l 11.260816009198317 5.829540121403554 a33.6802805655108,33.6802805655108 0 0,0 -0.2709618535154728,0.5125577122106444 l -11.15880164745795 -6.022512848700332" fill="#ff940d" stroke="none" /><line stroke="#e1ed5e" stroke-width="0.3" x1="174.80103733775053" x2="179.2010983576182" y1="140.37084112569926" y2="142.7455964860345" /><path d="M 175.68104954172406 140.8457921977663 a86.0,86.0 0 0,1 -30.038265399797805,32.042727171017184" fill="none" id="id65" stroke="none" /><text fill="#e1ed5e" style="font-size:6.75px; font-family:Arial;" text-anchor="middle"><textPath startOffset="22.206326154141568" xlink:href="#id65">May</textPath></text><path d="M 118.48025628344425 109.97397251340804 l 2.0315061545975817 1.09642346058413 a23.308497706537118,23.308497706537118 0 0,0 -0.19359770763168851,0.35143607360699036 l -2.0123320375143834 -1.1312300525889256" fill="#ff0000" stroke="none" /><path d="M 118.30583269289576 110.29060199501025 l 17.342768798036747 9.749216776210302 a40.89519684073765,40.89519684073765 0 0,0 -0.350234262798199,0.6106629585225265 l -17.17238253908617 -10.046299580591143" fill="#fff216" stroke="none" /><path d="M 116.71984013943494 112.70617746262583 l 15.141329629732375 11.506594542236822 a40.017402054845604,40.017402054845604 0 0,0 -0.42150364415121466,0.5448502793284714 l -14.941019168363093 -11.765522815678548" fill="#ffe715" stroke="none" /><path d="M 115.07121518719521 114.62390073753431 l 6.10144151382338 5.9203504127413105 a29.50165498925083,29.50165498925083 0 0,0 -0.35677246956654196,0.36140862806131085 l -5.998628419201302 -6.024499534783286" fill="#ff5a08" stroke="none" /><path d="M 113.20401910651253 116.32954008644616 l 28.343560175005063 35.05275918921247 a66.07830221038779,66.07830221038779 0 0,0 -0.8906175397432743,0.7075604374874445 l -27.73598514254444 -35.53545354070505" fill="#36ff71" stroke="none" /><path d="M 111.45004920935366 117.60387380957326 l 4.311078487784175 6.62806598421619 a28.906747524675314,28.906747524675314 0 0,0 -0.4194481911620674,0.2677116811039251 l -4.196348494575177 -6.701292094143923" fill="#ff5107" stroke="none" /><line stroke="#e1ed5e" stroke-width="0.3" x1="143.8653032363475" x2="146.44561519142675" y1="172.8068346515853" y2="177.08958963109032" /><path d="M 144.38136562736335 173.6633856474863 a86.0,86.0 0 0,1 -40.68145358897372,12.25698825130547" fill="none" id="id66" stroke="none" /><text fill="#e1ed5e" style="font-size:6.75px; font-family:Arial;" text-anchor="middle"><textPath startOffset="21.466115282336833" xlink:href="#id66">June</textPath></text><path d="M 107.93186726928326 119.44442032107085 l 3.5852132187402246 8.788900570211329 a30.492024391924552,30.492024391924552 0 0,0 -0.48769658771737073,0.19406453716323022 l -3.433395554980988 -8.849311951780628" fill="#ff6809" stroke="none" /><path d="M 107.2578585660854 119.70592522655815 l 3.038487178411149 8.249844026916682 a29.791605700998073,29.791605700998073 0 0,0 -0.48273812749911055,0.17309271752127225 l -2.8960294902823036 -8.300924285477915" fill="#ff5e08" stroke="none" /><path d="M 106.57524785965236 119.94407469862006 l 3.7754076166891677 11.451585268295707 a33.057881564736064,33.057881564736064 0 0,0 -0.5419582380595396,0.1735179133495915 l -3.577728033538688 -11.514876028305004" fill="#ff8b0c" stroke="none" /><path d="M 104.48393922423573 120.51570834832081 l 2.0614526881754434 9.431921355195861 a30.654570297853006,30.654570297853006 0 0,0 -0.5164689865520842,0.10823109766588626 l -1.898792240193981 -9.466008433588287" fill="#ff6a09" stroke="none" /><path d="M 103.41894727170886 120.7198165907248 l 1.2611109475746947 7.642699772097545 a28.746048065208,28.746048065208 0 0,0 -0.4889074967560987,0.07635729610279798 l -1.129367587210079 -7.66327537554745" fill="#ff4f07" stroke="none" /><path d="M 101.26447882468166 120.96189622390904 l 0.6256890814476499 10.372360009303051 a31.391214509826654,31.391214509826654 0 0,0 -0.5396477611923489,0.02789362517726367 l -0.44705325184182143 -10.381593441242517" fill="#ff740a" stroke="none" /><line stroke="#e1ed5e" stroke-width="0.3" x1="102.19456741930631" x2="102.32365962044197" y1="184.97166512339345" y2="189.96999836594603" /><path d="M 102.22038585953345 185.97133177190398 a86.0,86.0 0 0,1 -42.740103519485714,-10.115201625700543" fill="none" id="id67" stroke="none" /><text fill="#e1ed5e" style="font-size:6.75px; font-family:Arial;" text-anchor="middle"><textPath startOffset="22.20632615414155" xlink:href="#id67">July</textPath></text><path d="M 100.54218724476979 120.99299961872073 l 0.2643516020310122 10.235454880539491 a31.238868022445452,31.238868022445452 0 0,0 -0.5376660069254621,0.009256407906809504 l -0.0881259052128822 -10.23848876572546" fill="#ff720a" stroke="none" /><line stroke="#e1ed5e" stroke-width="0.3" x1="58.666819895761336" x2="56.23545636021788" y1="174.27360380694188" y2="178.64263932499728" /><path d="M 58.180547188652646 175.14741091055294 a86.0,86.0 0 0,1 -31.652253787137756,-30.449443065178592" fill="none" id="id68" stroke="none" /><text fill="#e1ed5e" style="font-size:6.75px; font-family:Arial;" text-anchor="middle"><textPath startOffset="22.20632615414155" xlink:href="#id68">August</textPath></text><line stroke="#e1ed5e" stroke-width="0.3" x1="26.63291911575756" x2="22.317208475507996" y1="142.92168965132927" y2="145.44649492493687" /><path d="M 25.769776987707644 143.4266507060508 a86.0,86.0 0 0,1 -11.730757126820373,-40.83630448921669" fill="none" id="id69" stroke="none" /><text fill="#e1ed5e" style="font-size:6.75px; font-family:Arial;" text-anchor="middle"><textPath startOffset="21.46611528233685" xlink:href="#id69">September</textPath></text><line stroke="#e1ed5e" stroke-width="0.3" x1="15.007084014347285" x2="10.007500721073583" y1="101.09737516637583" y2="101.16192664675087" /><path d="M 14.007167355692545 101.11028546245083 a86.0,86.0 0 0,1 10.666146001902534,-42.60595125391555" fill="none" id="id70" stroke="none" /><text fill="#e1ed5e" style="font-size:6.75px; font-family:Arial;" text-anchor="middle"><textPath startOffset="22.20632615414155" xlink:href="#id70">October</textPath></text><line stroke="#e1ed5e" stroke-width="0.3" x1="26.266209847984243" x2="21.928928074336255" y1="57.711370442889674" y2="55.22380399835377" /><path d="M 25.398753493254645 57.213857153982495 a86.0,86.0 0 0,1 29.58750427330803,-30.492523968695096" fill="none" id="id71" stroke="none" /><text fill="#e1ed5e" style="font-size:6.75px; font-family:Arial;" text-anchor="middle"><textPath startOffset="21.46611528233685" xlink:href="#id71">November</textPath></text><line stroke="#e1ed5e" stroke-width="0.3" x1="56.762969772571076" x2="54.21961505331055" y1="26.818313649435495" y2="22.513508569990535" /><path d="M 56.25429882871897 25.957352633546506 a86.0,86.0 0 0,1 42.265352541879196,-11.944610805530505" fill="none" id="id72" stroke="none" /><text fill="#e1ed5e" style="font-size:6.75px; font-family:Arial;" text-anchor="middle"><textPath startOffset="22.20632615414155" xlink:href="#id72">December</textPath></text></svg>