<?xml version="1.0" encoding="utf-8" ?>
<svg baseProfile="full" height="200mm" version="1.1" viewBox="0,0,200,200" width="200mm" xmlns="http://www.w3.org/2000/svg" xmlns:ev="http://www.w3.org/2001/xml-events" xmlns:xlink="http://www.w3.org/1999/xlink"><defs /><rect fill="#1a1a1a" height="200" width="200" x="0" y="0" /><text alignment-baseline="middle" fill="#e1ed5e" style="dominant-baseline: central; font-size:9.0px; font-family:Arial;" text-anchor="middle" x="100.0" y="100.0">2024</text><line stroke="#e1ed5e" stroke-width="0.3" x1="100.0" x2="100.0" y1="15.0" y2="10.0" /><path d="M 100.0 14.0 a86.0,86.0 0 0,1 42.35913384403234,11.155469271406648" fill="none" id="id37" stroke="none" /><text fill="#e1ed5e" style="font-size:6.75px; font-family:Arial;" text-anchor="middle"><textPath startOffset="22.145653131862478" xlink:href="#id37">January</textPath></text><path d="M 100.36049292484886 79.00309439819443 l 0.7413051312851834 -43.177307488781146 a64.18367070176441,64.18367070176441 0 0,0 1.1014733511897015,0.028370046331686015 l -1.4823917965456261 43.158219725099414" fill="#34ff5e" stroke="none" /><path d="M 101.80034050326958 79.07731436759882 l 1.6508458325468494 -19.18533095223339 a40.25622537543539,40.25622537543539 0 0,0 0.6879988982721469,0.06515421097612982 l -1.979944294204009 19.15416498575208" fill="#fff216" stroke="none" /><path d="M 102.87502721639298 79.19773525538626 l 2.8688258715006576 -20.757394902169395 a41.954703648718095,41.954703648718095 0 0,0 0.7125804520555964,0.10472478739663163 l -3.2247314291639357 20.70508904147388" fill="#f7ff18" stroke="none" /><path d="M 105.69591212413111 79.78721728523813 l 4.881903738116415 -17.324154120088995 a38.998869411294464,38.998869411294464 0 0,0 0.6428127702455662,0.18711342896479263 l -5.178576520743586 17.237796996821686" fill="#ffe215" stroke="none" /><path d="M 106.04205211174951 79.88797359093562 l 4.972195228375142 -16.55082079640472 a38.28156226802946,38.28156226802946 0 0,0 0.627743550252567,0.19447655651646228 l -5.2555794114993395 16.463027652081614" fill="#ffd914" stroke="none" /><line stroke="#e1ed5e" stroke-width="0.3" x1="143.13028292997686" x2="145.6673583964461" y1="26.7553504044142" y2="22.446841604673864" /><path d="M 143.63769802327073 25.89364864446614 a86.0,86.0 0 0,1 29.32050498858742,28.57503671076993" fill="none" id="id38" stroke="none" /><text fill="#e1ed5e" style="font-size:6.75px; font-family:Arial;" text-anchor="middle"><textPath startOffset="20.669276256404974" xlink:href="#id38">February</textPath></text><path d="M 111.5731344415666 82.4767994020092 l 18.629339866782086 -28.207194960190932 a54.80381859190315,54.80381859190315 0 0,0 0.7805726460617534,0.5252041121207162 l -19.110808800940838 27.883241174013097" fill="#66ff29" stroke="none" /><path d="M 113.86319453409587 84.22622945171908 l 0.8945809480375562 -1.0178689029071115 a22.35511334437275,22.35511334437275 0 0,0 0.2860762278552576,0.2558111269817295 l -0.9119222027161893 1.0023622460419952" fill="#ff0000" stroke="none" /><path d="M 116.35404254752997 86.82634096563983 l 25.694163738157414 -20.697399513041507 a53.993520527608055,53.993520527608055 0 0,0 0.5752458604699994,0.7268043529042008 l -26.04567602926897 20.25327521622263" fill="#6fff28" stroke="none" /><line stroke="#e1ed5e" stroke-width="0.3" x1="172.87174338648825" x2="177.1583165268699" y1="56.24261187166439" y2="53.66864786411523" /><path d="M 173.72905801456457 55.72781907015455 a86.0,86.0 0 0,1 12.242430191666344,42.057860355516425" fill="none" id="id39" stroke="none" /><text fill="#e1ed5e" style="font-size:6.75px; font-family:Arial;" text-anchor="middle"><textPath startOffset="22.145653131862474" xlink:href="#id39">March</textPath></text><path d="M 118.70294669586156 90.45014215332178 l 20.725557232089468 -10.582617198146847 a44.27102295437675,44.27102295437675 0 0,0 0.33979082485674417,0.679809266563327 l -20.90416797015795 10.22527607541977" fill="#dbff1b" stroke="none" /><path d="M 120.16314734710363 94.1308016681162 l 49.39415585931158 -14.377918892504825 a72.44421429795008,72.44421429795008 0 0,0 0.33731926259646106,1.1970270628790818 l -49.63369361398262 13.52788390572273" fill="#3fffba" stroke="none" /><path d="M 120.7213421655516 96.59031103205396 l 49.73725550584006 -8.184246466240522 a71.40611545708902,71.40611545708902 0 0,0 0.1886430827505741,1.2112239146753854 l -49.870420080728906 7.329234369633696" fill="#3dffaf" stroke="none" /><path d="M 120.99303781780057 99.45929381324524 l 7.00805811797824 -0.18050271782556 a28.010382287443612,28.010382287443612 0 0,0 0.008254484130159919,0.4807823181140232 l -7.010124033707066 0.06017348374247042" fill="#ff5107" stroke="none" /><line stroke="#e1ed5e" stroke-width="0.3" x1="184.99686870605535" x2="189.99668451229388" y1="99.2704041080226" y2="99.22748670261217" /><path d="M 185.99683186730306 99.26182062694052 a86.0,86.0 0 0,1 -10.086455211305974,41.156179273409016" fill="none" id="id40" stroke="none" /><text fill="#e1ed5e" style="font-size:6.75px; font-family:Arial;" text-anchor="middle"><textPath startOffset="21.40746469413373" xlink:href="#id40">April</textPath></text><path d="M 120.51834098615036 104.47187691870673 l 25.81511445051036 5.626284042307889 a47.42111288756924,47.42111288756924 0 0,0 -0.18017570196551916,0.7938873875081593 l -25.714727886987177 -6.068605763755065" fill="#b7ff1f" stroke="none" /><path d="M 119.0197475246899 108.90220220490707 l 30.75596782571619 14.395345902290344 a54.958143950208424,54.958143950208424 0 0,0 -0.4072679591751147,0.8510333963006737 l -30.504320608581164 -14.921191800656121" fill="#65ff29" stroke="none" /><line stroke="#e1ed5e" stroke-width="0.3" x1="174.33088141563837" x2="178.70328620479359" y1="141.23008692659167" y2="143.65538615756765" /><path d="M 175.20536237346943 141.71514677278685 a86.0,86.0 0 0,1 -30.301960400862466,31.631185727798858" fill="none" id="id41" stroke="none" /><text fill="#e1ed5e" style="font-size:6.75px; font-family:Arial;" text-anchor="middle"><textPath startOffset="22.145653131862474" xlink:href="#id41">May</textPath></text><path d="M 117.62189284568427 111.42229804090321 l 18.35145108286599 11.895188875971845 a42.869414149488954,42.869414149488954 0 0,0 -0.40557642425187884,0.6140943990467831 l -18.144550219693386 -12.20846315335769" fill="#ecff1a" stroke="none" /><path d="M 116.35404254752997 113.17365903436017 l 26.94761103219533 21.70708792624004 a55.60305487352253,55.60305487352253 0 0,0 -0.6051550024472717,0.7381907061586466 l -26.57100921050943 -22.16648091409718" fill="#5eff2a" stroke="none" /><path d="M 114.91283532996324 114.78537596483092 l 37.04402197777316 36.72740830781946 a73.16475903614457,73.16475903614457 0 0,0 -0.8919414035712941,0.8843180185798402 l -36.4080886540719 -37.357906336627956" fill="#3fffc2" stroke="none" /><path d="M 112.45986205192187 116.90419585922612 l 9.113688655065237 12.364468995181761 a36.36031947695997,36.36031947695997 0 0,0 -0.5056144645781708,0.36602588047894385 l -8.900093180113098 -12.519095647033781" fill="#ffc111" stroke="none" /><path d="M 111.5731344415666 117.5232005979908 l 14.40975178813342 21.818200801660954 a47.147176383258156,47.147176383258156 0 0,0 -0.6791761073546946,0.4402337472143789 l -14.033090048521714 -22.062348390579228" fill="#baff1f" stroke="none" /><line stroke="#e1ed5e" stroke-width="0.3" x1="143.1302829299769" x2="145.66735839644613" y1="173.24464959558577" y2="177.55315839532614" /><path d="M 143.63769802327073 174.10635135553383 a86.0,86.0 0 0,1 -40.68552437913181,11.842963189579606" fill="none" id="id42" stroke="none" /><text fill="#e1ed5e" style="font-size:6.75px; font-family:Arial;" text-anchor="middle"><textPath startOffset="21.407464694133747" xlink:href="#id42">June</textPath></text><path d="M 110.34350942703117 118.27599006163325 l 19.23279690972177 33.982509288472166 a60.04755324616,60.04755324616 0 0,0 -0.9014447689456342,0.5000162176918603 l -18.64660795262004 -34.307658421597175" fill="#31ff2f" stroke="none" /><path d="M 107.74402155503746 119.51999308798841 l 9.997130321725013 25.199299019622558 a48.10991120881631,48.10991120881631 0 0,0 -0.7702803141608332,0.29796097302321833 l -9.56307774507065 -25.367199880783815" fill="#afff20" stroke="none" /><path d="M 104.29559338865022 120.5559693870025 l 4.760761290879442 22.781966191845523 a44.27408068292126,44.27408068292126 0 0,0 -0.7452877676808837,0.14907842653745296 l -4.3689770376676 -22.860334015045837" fill="#dbff1b" stroke="none" /><path d="M 102.51750503828377 120.84855314841334 l 3.559812211902674 29.480351764784924 a50.69450122765946,50.69450122765946 0 0,0 -0.8648580845773615,0.09690915229822958 l -3.0532182257245135 -29.537116677590124" fill="#92ff23" stroke="none" /><line stroke="#e1ed5e" stroke-width="0.3" x1="101.45913802915013" x2="101.54496967792366" y1="184.9874750549273" y2="189.98673829345242" /><path d="M 101.47630435890484 185.9873277026323 a86.0,86.0 0 0,1 -42.54439059252881,-10.42667462771756" fill="none" id="id43" stroke="none" /><text fill="#e1ed5e" style="font-size:6.75px; font-family:Arial;" text-anchor="middle"><textPath startOffset="22.145653131862474" xlink:href="#id43">July</textPath></text><path d="M 98.55909050195518 120.95050786540614 l -1.1735888217116666 17.063723900346016 a38.10403414606292,38.10403414606292 0 0,0 -0.6521795855351488,-0.050482824592390216 l 1.4663374020220514 -17.04106330875857" fill="#ffd714" stroke="none" /><path d="M 98.19965949673042 120.92268563240118 l -1.412382699050485 16.414027874842866 a37.47468166504882,37.47468166504882 0 0,0 -0.6404609338854088,-0.0606523163236709 l 1.6939431963209093 -16.38736380301401" fill="#ffcf13" stroke="none" /><path d="M 97.48249496171623 120.84855314841334 l -2.054775307192038 17.01648717622617 a38.14009735624964,38.14009735624964 0 0,0 -0.6493300323858828,-0.08406877273248825 l 2.3465831614687147 -16.97870680729329" fill="#ffd814" stroke="none" /><path d="M 96.76829788921471 120.74984581791261 l -0.9680159271830913 6.215356660286988 a27.290287215211556,27.290287215211556 0 0,0 -0.4622747195521006,-0.07606712918613504 l 1.0745681497882553 -6.197823532605184" fill="#ff4706" stroke="none" /><path d="M 93.61358852112213 120.00534299687104 l -15.34502831075786 48.068082626480866 a71.4580069091532,71.4580069091532 0 0,0 -1.1653686942569246,-0.38307983696573544 l 16.167919742662527 -47.79758186811311" fill="#3dffb0" stroke="none" /><path d="M 91.92203290615298 119.3841803445677 l -17.360525917491117 41.658942324426654 a66.13153371780963,66.13153371780963 0 0,0 -1.0441379526671262,-0.44568040371304535 l 18.073098945328674 -41.35478727105421" fill="#37ff75" stroke="none" /><path d="M 91.26138138417905 119.09545874513695 l -2.5311331728475284 5.530982779480977 a27.082631473762348,27.082631473762348 0 0,0 -0.421084992106791,-0.19708903813366788 l 2.625706878825809 -5.486717509776783" fill="#ff4406" stroke="none" /><line stroke="#e1ed5e" stroke-width="0.3" x1="58.13341422392154" x2="55.67067388415222" y1="173.97424548756322" y2="178.32567169271397" /><path d="M 57.64086615596768 174.84453072859336 a86.0,86.0 0 0,1 -31.369924170532247,-30.572349798747897" fill="none" id="id44" stroke="none" /><text fill="#e1ed5e" style="font-size:6.75px; font-family:Arial;" text-anchor="middle"><textPath startOffset="22.145653131862474" xlink:href="#id44">August</textPath></text><path d="M 89.03521579738668 117.91015095944536 l -3.2728594221633043 5.345969901169339 a27.26825358305259,27.26825358305259 0 0,0 -0.3971242900455205,-0.24783492817390215 l 3.3641478409985375 -5.288999176153889" fill="#ff4706" stroke="none" /><path d="M 88.72937992617639 117.7192867562869 l -1.2808561278723962 2.0137185775634614 a23.386557128989892,23.386557128989892 0 0,0 -0.3368937877886524,-0.2183704830093344 l 1.3152355479180582 -1.9914342528502322" fill="#ff0f01" stroke="none" /><path d="M 88.4268655584334 117.5232005979908 l -10.135099960992564 15.345833109765605 a39.39061839776166,39.39061839776166 0 0,0 -0.5610419131868997,-0.377494037697195 l 10.39703816227647 -15.169589398011288" fill="#ffe715" stroke="none" /><path d="M 86.96720088162412 116.46651593811092 l -14.408115514805417 18.20418327695765 a44.21607377376806,44.21607377376806 0 0,0 -0.5911251738047758,-0.47616859646162274 l 14.718491458965453 -17.954166386702617" fill="#dcff1b" stroke="none" /><line stroke="#e1ed5e" stroke-width="0.3" x1="26.387840678322732" x2="22.057713659400548" y1="142.50000000000003" y2="145.00000000000006" /><path d="M 25.521815274538298 143.00000000000003 a86.0,86.0 0 0,1 -11.493303480769221,-40.785679425670985" fill="none" id="id45" stroke="none" /><text fill="#e1ed5e" style="font-size:6.75px; font-family:Arial;" text-anchor="middle"><textPath startOffset="21.40746469413373" xlink:href="#id45">September</textPath></text><path d="M 80.68587082218212 108.24405325689762 l -21.260651075770745 9.074907707786917 a44.11642779649404,44.11642779649404 0 0,0 -0.29132420794028213,-0.6990720462025821 l 21.413301128247515 -8.708603152143054" fill="#ddff1b" stroke="none" /><path d="M 79.73907114497094 105.5222062557868 l -26.816200657596617 7.308874735575483 a48.79439273682407,48.79439273682407 0 0,0 -0.21332564433264772,-0.8100322183498566 l 26.937715782733996 -6.847462012852824" fill="#a7ff21" stroke="none" /><path d="M 79.06263194458094 101.62068470465958 l -25.121165402769055 1.9445370795281758 a46.196312739108095,46.196312739108095 0 0,0 -0.054414942187872864,-0.7911813169734622 l 25.150844306121993 -1.5130123384003702" fill="#c5ff1e" stroke="none" /><line stroke="#e1ed5e" stroke-width="0.3" x1="15.003131293944662" x2="10.003315487706104" y1="100.72959589197737" y2="100.7725132973878" /><path d="M 14.003168132696942 100.73817937305945 a86.0,86.0 0 0,1 10.791469493833604,-42.45332614584628" fill="none" id="id46" stroke="none" /><text fill="#e1ed5e" style="font-size:6.75px; font-family:Arial;" text-anchor="middle"><textPath startOffset="22.145653131862435" xlink:href="#id46">October</textPath></text><path d="M 79.00696218219943 99.45929381324524 l -62.97911345340172 -1.6221185602642838 a84.0,84.0 0 0,0 0.04950125201259814,-1.4411749417434458 l 62.941987514392274 2.7029997665718684" fill="#4dd2ff" stroke="none" /><path d="M 79.2786578344484 96.59031103205396 l -41.53751763062751 -6.8349827192404975 a63.09610860503626,63.09610860503626 0 0,0 0.18503739828433155,-1.067246541528944 l 41.414065414850946 7.547022293690034" fill="#33ff51" stroke="none" /><path d="M 79.407916724674 95.88100663000787 l -5.922678459662124 -1.1847015662167035 a27.040003140524185,27.040003140524185 0 0,0 0.0949519871856459,-0.45437963168961226 l 5.901468761652111 1.2861976491917249" fill="#ff4306" stroke="none" /><path d="M 79.94057633289273 93.78553927170692 l -37.62043941587515 -11.654908297013876 a60.38444298521099,60.38444298521099 0 0,0 0.3152507413959817,-0.9875184573532416 l 37.41482395870191 12.298995788058509" fill="#30ff31" stroke="none" /><line stroke="#e1ed5e" stroke-width="0.3" x1="26.387840678322718" x2="22.05771365940052" y1="57.49999999999999" y2="54.99999999999999" /><path d="M 25.521815274538284 56.99999999999999 a86.0,86.0 0 0,1 29.574782752854787,-30.34633250058573" fill="none" id="id47" stroke="none" /><text fill="#e1ed5e" style="font-size:6.75px; font-family:Arial;" text-anchor="middle"><textPath startOffset="21.40746469413373" xlink:href="#id47">November</textPath></text><line stroke="#e1ed5e" stroke-width="0.3" x1="56.869717070023135" x2="54.33264160355391" y1="26.7553504044142" y2="22.446841604673864" /><path d="M 56.362301976729285 25.89364864446614 a86.0,86.0 0 0,1 42.16139366436587,-11.88097634709845" fill="none" id="id48" stroke="none" /><text fill="#e1ed5e" style="font-size:6.75px; font-family:Arial;" text-anchor="middle"><textPath startOffset="22.145653131862474" xlink:href="#id48">December</textPath></text></svg>