<?xml version="1.0" encoding="utf-8" ?>
<svg baseProfile="full" height="200mm" version="1.1" viewBox="0,0,200,200" width="200mm" xmlns="http://www.w3.org/2000/svg" xmlns:ev="http://www.w3.org/2001/xml-events" xmlns:xlink="http://www.w3.org/1999/xlink"><defs /><rect fill="#1a1a1a" height="200" width="200" x="0" y="0" /><text alignment-baseline="middle" fill="#e1ed5e" style="dominant-baseline: central; font-size:9.0px; font-family:Arial;" text-anchor="middle" x="100.0" y="100.0">2024</text><line stroke="#e1ed5e" stroke-width="0.3" x1="100.0" x2="100.0" y1="15.0" y2="10.0" /><path d="M 100.0 14.0 a86.0,86.0 0 0,1 42.35913384403234,11.155469271406648" fill="none" id="id37" stroke="none" /><text fill="#e1ed5e" style="font-size:6.75px; font-family:Arial;" text-anchor="middle"><textPath startOffset="22.145653131862478" xlink:href="#id37">January</textPath></text><path d="M 100.36049292484886 79.00309439819443 l 0.8952830250515854 -52.145747858404285 a73.15343278641609,73.15343278641609 0 0,0 1.2554058669640604,0.03233480190180914 l -1.7903022060863871 52.12269533915243" fill="#3fffc1" stroke="none" /><path d="M 101.80034050326958 79.07731436759882 l 1.9937461491653472 -23.17035240502541 a44.25597244323227,44.25597244323227 0 0,0 0.756356563461757,0.07162775294078243 l -2.391202276012117 23.132712896579445" fill="#deff1b" stroke="none" /><path d="M 102.87502721639298 79.19773525538626 l 3.4647151303682 -25.06895273743266 a46.30724485767336,46.30724485767336 0 0,0 0.7865062699623742,0.11558933685357543 l -3.8945465059382562 25.0057823272802" fill="#c6ff1e" stroke="none" /><path d="M 105.69591212413111 79.78721728523813 l 5.895933215913603 -20.922587005709513 a42.737448688795055,42.737448688795055 0 0,0 0.7044352361895874,0.2050508307056559 l -6.254228464484795 20.81829248070134" fill="#f0ff19" stroke="none" /><path d="M 106.04205211174951 79.88797359093562 l 6.004979322737533 -19.988623151714695 a41.87114831933715,41.87114831933715 0 0,0 0.6866058160088119,0.21271223691242278 l -6.347225771617975 19.882594326995626" fill="#faff18" stroke="none" /><line stroke="#e1ed5e" stroke-width="0.3" x1="143.13028292997686" x2="145.6673583964461" y1="26.7553504044142" y2="22.446841604673864" /><path d="M 143.63769802327073 25.89364864446614 a86.0,86.0 0 0,1 29.32050498858742,28.57503671076993" fill="none" id="id38" stroke="none" /><text fill="#e1ed5e" style="font-size:6.75px; font-family:Arial;" text-anchor="middle"><textPath startOffset="20.669276256404974" xlink:href="#id38">February</textPath></text><path d="M 111.5731344415666 82.4767994020092 l 22.498875357481452 -34.06616488462492 a61.825273817795,61.825273817795 0 0,0 0.8805794708724659,0.5924931670161486 l -23.08035111645092 33.674922043551646" fill="#31ff41" stroke="none" /><path d="M 113.86319453409587 84.22622945171908 l 1.0803960521952316 -1.2292923818303443 a22.636586505390156,22.636586505390156 0 0,0 0.289678212730303,0.25903204406793595 l -1.1013392917489102 1.2105648078790214" fill="#ff0000" stroke="none" /><path d="M 116.35404254752997 86.82634096563983 l 31.031147184679014 -24.996495592323683 a60.84666720686022,60.84666720686022 0 0,0 0.6482591446550485,0.8190542523161979 l -31.45567275997562 24.460121396092806" fill="#30ff35" stroke="none" /><line stroke="#e1ed5e" stroke-width="0.3" x1="172.87174338648825" x2="177.1583165268699" y1="56.24261187166439" y2="53.66864786411523" /><path d="M 173.72905801456457 55.72781907015455 a86.0,86.0 0 0,1 12.242430191666344,42.057860355516425" fill="none" id="id39" stroke="none" /><text fill="#e1ed5e" style="font-size:6.75px; font-family:Arial;" text-anchor="middle"><textPath startOffset="22.145653131862474" xlink:href="#id39">March</textPath></text><path d="M 118.70294669586156 90.45014215332178 l 25.03050200456058 -12.780752672916528 a49.10469123627894,49.10469123627894 0 0,0 0.3768903997702046,0.754033268410239 l -25.246212317542522 12.349187548342538" fill="#a6ff21" stroke="none" /><path d="M 120.16314734710363 94.1308016681162 l 59.653909586363945 -17.36438367519681 a83.1297895486338,83.1297895486338 0 0,0 0.3870741035994315,1.3735894409993352 l -59.94320218203796 16.33778631029446" fill="#4cdaff" stroke="none" /><path d="M 120.7213421655516 96.59031103205396 l 60.068275110727186 -9.884211810810672 a81.8760652300966,81.8760652300966 0 0,0 0.21630294897884886,1.3888200977101248 l -60.2290995518443 8.851603531169106" fill="#4ae6ff" stroke="none" /><path d="M 120.99303781780057 99.45929381324524 l 8.463715151577942 -0.2179952794401089 a29.466522078687813,29.466522078687813 0 0,0 0.00868359940158939,0.5057761313775533 l -8.466210182578198 0.0726722320934892" fill="#ff6209" stroke="none" /><line stroke="#e1ed5e" stroke-width="0.3" x1="184.99686870605535" x2="189.99668451229388" y1="99.2704041080226" y2="99.22748670261217" /><path d="M 185.99683186730306 99.26182062694052 a86.0,86.0 0 0,1 -10.086455211305974,41.156179273409016" fill="none" id="id40" stroke="none" /><text fill="#e1ed5e" style="font-size:6.75px; font-family:Arial;" text-anchor="middle"><textPath startOffset="21.40746469413373" xlink:href="#id40">April</textPath></text><path d="M 120.51834098615036 104.47187691870673 l 31.17722079872476 6.794930163864018 a52.90909231965436,52.90909231965436 0 0,0 -0.20102718533101116,0.8857628705733966 l -31.055982751836087 -7.329127368376431" fill="#7cff26" stroke="none" /><path d="M 119.0197475246899 108.90220220490707 l 37.14434819257103 17.385430482213145 a62.011654388756625,62.011654388756625 0 0,0 -0.45953807957675175,0.9602578444515861 l -36.84043085503436 -18.020500828729837" fill="#31ff43" stroke="none" /><line stroke="#e1ed5e" stroke-width="0.3" x1="174.33088141563837" x2="178.70328620479359" y1="141.23008692659167" y2="143.65538615756765" /><path d="M 175.20536237346943 141.71514677278685 a86.0,86.0 0 0,1 -30.301960400862466,31.631185727798858" fill="none" id="id41" stroke="none" /><text fill="#e1ed5e" style="font-size:6.75px; font-family:Arial;" text-anchor="middle"><textPath startOffset="22.145653131862474" xlink:href="#id41">May</textPath></text><path d="M 117.62189284568427 111.42229804090321 l 22.1632657675937 14.365961101573856 a47.41195161015035,47.41195161015035 0 0,0 -0.44855219466714175,0.6791651929308562 l -21.913389134005833 -14.744306172843771" fill="#b9ff1f" stroke="none" /><path d="M 116.35404254752997 113.17365903436017 l 32.54495039173826 26.215908299424125 a62.79052098220982,62.79052098220982 0 0,0 -0.6833796805784642,0.8336120943239527 l -32.09012389192117 -26.77072267544657" fill="#32ff4d" stroke="none" /><path d="M 114.91283532996324 114.78537596483092 l 44.738505989889745 44.356127894492765 a84.0,84.0 0 0,0 -1.0240323194801406,1.015279959085353 l -43.97048175027964 -45.117587863806776" fill="#4dd2ff" stroke="none" /><path d="M 112.45986205192187 116.90419585922612 l 11.00671019818719 14.932716283740795 a39.55084054692874,39.55084054692874 0 0,0 -0.5499807854940206,0.39814367538891254 l -10.748748402319201 -15.119460730502784" fill="#ffe715" stroke="none" /><path d="M 111.5731344415666 117.5232005979908 l 17.40282864190722 26.35010064078369 a52.57825594485888,52.57825594485888 0 0,0 -0.7574132311518147,0.490946105625559 l -16.947929778498395 -26.644960588113143" fill="#7fff26" stroke="none" /><line stroke="#e1ed5e" stroke-width="0.3" x1="143.1302829299769" x2="145.66735839644613" y1="173.24464959558577" y2="177.55315839532614" /><path d="M 143.63769802327073 174.10635135553383 a86.0,86.0 0 0,1 -40.68552437913181,11.842963189579606" fill="none" id="id42" stroke="none" /><text fill="#e1ed5e" style="font-size:6.75px; font-family:Arial;" text-anchor="middle"><textPath startOffset="21.407464694133747" xlink:href="#id42">June</textPath></text><path d="M 110.34350942703117 118.27599006163325 l 23.227677606502827 41.04108069760917 a68.15819453519505,68.15819453519505 0 0,0 -1.0232031881908459,0.5675535603671521 l -22.519730230155886 -41.433767173409464" fill="#39ff8b" stroke="none" /><path d="M 107.74402155503746 119.51999308798841 l 12.07365320775811 30.43349317757253 a53.7409622456421,53.7409622456421 0 0,0 -0.8604381974891857,0.33283597910655 l -11.549442747775394 -30.636269044817123" fill="#73ff27" stroke="none" /><path d="M 104.29559338865022 120.5559693870025 l 5.749628041367677 27.514051566725033 a49.108384091414536,49.108384091414536 0 0,0 -0.8266660174385999,0.16535635561980272 l -5.276465538398118 -27.608697319007696" fill="#a6ff21" stroke="none" /><path d="M 102.51750503828377 120.84855314841334 l 4.299227553116362 35.60377150203199 a56.86240235570367,56.86240235570367 0 0,0 -0.9700836815608935,0.10869989991982633 l -3.6874079699546685 -35.672327162458785" fill="#52ff2b" stroke="none" /><line stroke="#e1ed5e" stroke-width="0.3" x1="101.45913802915013" x2="101.54496967792366" y1="184.9874750549273" y2="189.98673829345242" /><path d="M 101.47630435890484 185.9873277026323 a86.0,86.0 0 0,1 -42.54439059252881,-10.42667462771756" fill="none" id="id43" stroke="none" /><text fill="#e1ed5e" style="font-size:6.75px; font-family:Arial;" text-anchor="middle"><textPath startOffset="22.145653131862474" xlink:href="#id43">July</textPath></text><path d="M 98.55909050195518 120.95050786540614 l -1.417357180095574 20.608062331447353 a41.65674549469949,41.65674549469949 0 0,0 -0.7129869479786664,-0.05518969901815612 l 1.7709131228494766 -20.580694865434143" fill="#fdff18" stroke="none" /><path d="M 98.19965949673042 120.92268563240118 l -1.7057513862668647 19.823416713160537 a40.89666901708333,40.89666901708333 0 0,0 -0.6989443983966537,-0.06619076121791462 l 2.0457953480485336 -19.79121419643744" fill="#fff817" stroke="none" /><path d="M 97.48249496171623 120.84855314841334 l -2.481576580530217 20.551013977835904 a41.70029946262234,41.70029946262234 0 0,0 -0.7099419948420423,-0.09191620476620141 l 2.8339963972630535 -20.505386176869305" fill="#fdff18" stroke="none" /><path d="M 96.76829788921471 120.74984581791261 l -1.1690843500355996 7.506360171754383 a28.596854694253317,28.596854694253317 0 0,0 -0.48440688365088147,-0.07970896836631318 l 1.2977687367395445 -7.485185204892401" fill="#ff5607" stroke="none" /><path d="M 93.61358852112213 120.00534299687104 l -18.53237322361444 58.052395169122036 a81.9387351540155,81.9387351540155 0 0,0 -1.336293033150182,-0.43926606214870717 l 19.526188994412365 -57.72570818557131" fill="#4ae5ff" stroke="none" /><path d="M 91.92203290615298 119.3841803445677 l -20.966513658083123 50.31200018810349 a75.50589012118151,75.50589012118151 0 0,0 -1.1921478467723443,-0.508857026294227 l 21.8270965800259 -49.94466851214986" fill="#42ffda" stroke="none" /><path d="M 91.26138138417905 119.09545874513695 l -3.0568796412709336 6.679833695117079 a28.346066385191342,28.346066385191342 0 0,0 -0.4407290758149025,-0.20628346119699822 l 3.171097430957326 -6.626374002349554" fill="#ff5207" stroke="none" /><line stroke="#e1ed5e" stroke-width="0.3" x1="58.13341422392154" x2="55.67067388415222" y1="173.97424548756322" y2="178.32567169271397" /><path d="M 57.64086615596768 174.84453072859336 a86.0,86.0 0 0,1 -31.369924170532247,-30.572349798747897" fill="none" id="id44" stroke="none" /><text fill="#e1ed5e" style="font-size:6.75px; font-family:Arial;" text-anchor="middle"><textPath startOffset="22.145653131862474" xlink:href="#id44">August</textPath></text><path d="M 89.03521579738668 117.91015095944536 l -3.9526712555773615 6.456391441208512 a28.570244414599706,28.570244414599706 0 0,0 -0.41608598053475954,-0.25966842543975216 l 4.062921364901833 -6.387587218927212" fill="#ff5507" stroke="none" /><path d="M 88.72937992617639 117.7192867562869 l -1.5469051817156625 2.4319918797783533 a23.882273433338103,23.882273433338103 0 0,0 -0.34403480228340433,-0.22299920232954312 l 1.5884256162560766 -2.4050788357449155" fill="#ff1202" stroke="none" /><path d="M 88.4268655584334 117.5232005979908 l -12.240280782282763 18.53334518894937 a43.21056859969761,43.21056859969761 0 0,0 -0.6154495934099299,-0.41410195308887 l 12.556626663789698 -18.320493561803378" fill="#eaff1a" stroke="none" /><line stroke="#e1ed5e" stroke-width="0.3" x1="26.387840678322732" x2="22.057713659400548" y1="142.50000000000003" y2="145.00000000000006" /><path d="M 25.521815274538298 143.00000000000003 a86.0,86.0 0 0,1 -11.493303480769221,-40.785679425670985" fill="none" id="id45" stroke="none" /><text fill="#e1ed5e" style="font-size:6.75px; font-family:Arial;" text-anchor="middle"><textPath startOffset="21.40746469413373" xlink:href="#id45">September</textPath></text><line stroke="#e1ed5e" stroke-width="0.3" x1="15.003131293944662" x2="10.003315487706104" y1="100.72959589197737" y2="100.7725132973878" /><path d="M 14.003168132696942 100.73817937305945 a86.0,86.0 0 0,1 10.791469493833604,-42.45332614584628" fill="none" id="id46" stroke="none" /><text fill="#e1ed5e" style="font-size:6.75px; font-family:Arial;" text-anchor="middle"><textPath startOffset="22.145653131862435" xlink:href="#id46">October</textPath></text><line stroke="#e1ed5e" stroke-width="0.3" x1="26.387840678322718" x2="22.05771365940052" y1="57.49999999999999" y2="54.99999999999999" /><path d="M 25.521815274538284 56.99999999999999 a86.0,86.0 0 0,1 29.574782752854787,-30.34633250058573" fill="none" id="id47" stroke="none" /><text fill="#e1ed5e" style="font-size:6.75px; font-family:Arial;" text-anchor="middle"><textPath startOffset="21.40746469413373" xlink:href="#id47">November</textPath></text><line stroke="#e1ed5e" stroke-width="0.3" x1="56.869717070023135" x2="54.33264160355391" y1="26.7553504044142" y2="22.446841604673864" /><path d="M 56.362301976729285 25.89364864446614 a86.0,86.0 0 0,1 42.16139366436587,-11.88097634709845" fill="none" id="id48" stroke="none" /><text fill="#e1ed5e" style="font-size:6.75px; font-family:Arial;" text-anchor="middle"><textPath startOffset="22.145653131862474" xlink:href="#id48">December</textPath></text></svg>