<?xml version="1.0" encoding="utf-8" ?>
<svg baseProfile="full" height="200mm" version="1.1" viewBox="0,0,200,200" width="200mm" xmlns="http://www.w3.org/2000/svg" xmlns:ev="http://www.w3.org/2001/xml-events" xmlns:xlink="http://www.w3.org/1999/xlink"><defs /><rect fill="#1a1a1a" height="200" width="200" x="0" y="0" /><text alignment-baseline="middle" fill="#e1ed5e" style="dominant-baseline: central; font-size:9.0px; font-family:Arial;" text-anchor="middle" x="100.0" y="100.0">2025</text><line stroke="#e1ed5e" stroke-width="0.3" x1="100.0" x2="100.0" y1="15.0" y2="10.0" /><path d="M 100.0 14.0 a86.0,86.0 0 0,1 42.46469731375804,11.215312516191453" fill="none" id="id49" stroke="none" /><text fill="#e1ed5e" style="font-size:6.75px; font-family:Arial;" text-anchor="middle"><textPath startOffset="22.20632615414155" xlink:href="#id49">January</textPath></text><path d="M 101.08401301168833 79.027996857942 l 0.7187377720863257 -13.905156720428758 a34.92371959659877,34.92371959659877 0 0,0 0.600085877435076,0.03619881889033147 l -0.9579856983610137 13.890724632158124" fill="#ffa50f" stroke="none" /><path d="M 102.88285421437855 79.19881850522331 l 2.0162022231962373 -14.547870012191302 a35.686919122009094,35.686919122009094 0 0,0 0.6077499652840102,0.08956654671577477 l -2.2663211689089033 14.511008981314557" fill="#ffb010" stroke="none" /><path d="M 103.95276090670814 79.375362276772 l 3.4420419542785026 -17.959818468824942 a39.286681827170256,39.286681827170256 0 0,0 0.6630723666726948,0.13300607889358276 l -3.7506807304183227 17.897908433854152" fill="#ffde14" stroke="none" /><line stroke="#e1ed5e" stroke-width="0.3" x1="143.23703022742887" x2="145.7803849466894" y1="26.81831364943548" y2="22.513508569990506" /><path d="M 143.74570117128098 25.957352633546492 a86.0,86.0 0 0,1 28.547481713284135,27.462654790039103" fill="none" id="id50" stroke="none" /><text fill="#e1ed5e" style="font-size:6.75px; font-family:Arial;" text-anchor="middle"><textPath startOffset="19.985693538727396" xlink:href="#id50">February</textPath></text><path d="M 114.94478906791727 85.2469230424477 l 8.094858360669482 -7.991017324681831 a32.37466877595413,32.37466877595413 0 0,0 0.3880886229372751,0.3999594398899169 l -8.231211247309867 7.8504936892418" fill="#ff830c" stroke="none" /><path d="M 116.15771136456269 86.58626213691792 l 1.6917236540715472 -1.4044277138320593 a23.198714652956298,23.198714652956298 0 0,0 0.25242577524236304,0.3094441532875034 l -1.715647921390319 1.375099390936455" fill="#ff0000" stroke="none" /><path d="M 117.2510076193507 88.02491185347247 l 8.121165614097338 -5.637448908913322 a30.88605892821831,30.88605892821831 0 0,0 0.29941171189043003,0.43934974173448027 l -8.2170017916565 5.496821143908435" fill="#ff6f0a" stroke="none" /><path d="M 117.45458315368197 88.32363383020206 l 17.258903859788393 -11.545465129811378 a41.76457385801859,41.76457385801859 0 0,0 0.3945824750606352,0.6009761802649278 l -17.455082970206952 11.246670885568776" fill="#fffd18" stroke="none" /><path d="M 117.65298651832404 88.62581576622439 l 52.95895955497212 -34.12255270132683 a84.0,84.0 0 0,0 0.7726896150161773,1.2222094091431752 l -53.538476766234254 33.20589564446945" fill="#4dd2ff" stroke="none" /><line stroke="#e1ed5e" stroke-width="0.3" x1="172.23445277983987" x2="176.4835382374775" y1="55.19839476539836" y2="52.563006222186495" /><path d="M 173.08426987136738 54.67131705675599 a86.0,86.0 0 0,1 12.851231095245387,41.99856678651699" fill="none" id="id51" stroke="none" /><text fill="#e1ed5e" style="font-size:6.75px; font-family:Arial;" text-anchor="middle"><textPath startOffset="22.20632615414155" xlink:href="#id51">March</textPath></text><path d="M 119.196687751892 91.48605970444005 l 8.746019399558289 -3.8789549506689918 a30.567609254498713,30.567609254498713 0 0,0 0.2091833060843006,0.4828239113171286 l -8.81149341548527 3.7278318947652607" fill="#ff6a09" stroke="none" /><path d="M 120.67395015179393 96.31383870115 l 2.628439965978029 -0.46865033570268483 a23.669893217322524,23.669893217322524 0 0,0 0.06806575187662887,0.40172792055715734 l -2.636117579374881 0.42333662682968964" fill="#ff0701" stroke="none" /><line stroke="#e1ed5e" stroke-width="0.3" x1="184.98032266829074" x2="189.97916517819016" y1="98.17113171792111" y2="98.06355123074" /><path d="M 185.9800911702706 98.14961562048488 a86.0,86.0 0 0,1 -9.607161424134198,41.387399972396054" fill="none" id="id52" stroke="none" /><text fill="#e1ed5e" style="font-size:6.75px; font-family:Arial;" text-anchor="middle"><textPath startOffset="21.466115282336823" xlink:href="#id52">April</textPath></text><path d="M 120.9904718944345 100.63252640178507 l 14.23751587526509 0.4290329789739995 a35.2439786434645,35.2439786434645 0 0,0 -0.023492406230773713,0.606234618655801 l -14.228021336183115 -0.6740448446438065" fill="#ffaa0f" stroke="none" /><path d="M 120.92983693683757 101.71520430193887 l 24.892753362753584 2.0399660916493256 a45.97620130512162,45.97620130512162 0 0,0 -0.07142819662981184,0.7882041977943469 l -24.8539505698467 -2.468151677992243" fill="#ceff1d" stroke="none" /><path d="M 120.13307415673323 105.97154293290107 l 9.869039691408627 2.9271930240242003 a31.293998418034406,31.293998418034406 0 0,0 -0.15762224827921317,0.5151186273387185 l -9.817190670623281 -3.096638623914976" fill="#ff740a" stroke="none" /><line stroke="#e1ed5e" stroke-width="0.3" x1="174.80103733775053" x2="179.2010983576182" y1="140.37084112569926" y2="142.7455964860345" /><path d="M 175.68104954172406 140.8457921977663 a86.0,86.0 0 0,1 -30.038265399797805,32.042727171017184" fill="none" id="id53" stroke="none" /><text fill="#e1ed5e" style="font-size:6.75px; font-family:Arial;" text-anchor="middle"><textPath startOffset="22.206326154141568" xlink:href="#id53">May</textPath></text><line stroke="#e1ed5e" stroke-width="0.3" x1="143.8653032363475" x2="146.44561519142675" y1="172.8068346515853" y2="177.08958963109032" /><path d="M 144.38136562736335 173.6633856474863 a86.0,86.0 0 0,1 -40.68145358897372,12.25698825130547" fill="none" id="id54" stroke="none" /><text fill="#e1ed5e" style="font-size:6.75px; font-family:Arial;" text-anchor="middle"><textPath startOffset="21.466115282336833" xlink:href="#id54">June</textPath></text><path d="M 108.92500713936063 119.00905698771935 l 3.4133569918586963 7.2699883108799925 a29.031421791576033,29.031421791576033 0 0,0 -0.4541786279479947,0.20849113203594177 l -3.287710368143282 -7.3276665132500085" fill="#ff5507" stroke="none" /><line stroke="#e1ed5e" stroke-width="0.3" x1="102.19456741930631" x2="102.32365962044197" y1="184.97166512339345" y2="189.96999836594603" /><path d="M 102.22038585953345 185.97133177190398 a86.0,86.0 0 0,1 -42.740103519485714,-10.115201625700543" fill="none" id="id55" stroke="none" /><text fill="#e1ed5e" style="font-size:6.75px; font-family:Arial;" text-anchor="middle"><textPath startOffset="22.20632615414155" xlink:href="#id55">July</textPath></text><path d="M 99.09653310690486 120.98055641714683 l -0.26112334538518917 6.0638780696429775 a27.06949772592446,27.06949772592446 0 0,0 -0.4653529362434599,-0.024053431353137467 l 0.365464350042138 -6.058484831527638" fill="#ff3905" stroke="none" /><line stroke="#e1ed5e" stroke-width="0.3" x1="58.666819895761336" x2="56.23545636021788" y1="174.27360380694188" y2="178.64263932499728" /><path d="M 58.180547188652646 175.14741091055294 a86.0,86.0 0 0,1 -31.652253787137756,-30.449443065178592" fill="none" id="id56" stroke="none" /><text fill="#e1ed5e" style="font-size:6.75px; font-family:Arial;" text-anchor="middle"><textPath startOffset="22.20632615414155" xlink:href="#id56">August</textPath></text><line stroke="#e1ed5e" stroke-width="0.3" x1="26.63291911575756" x2="22.317208475507996" y1="142.92168965132927" y2="145.44649492493687" /><path d="M 25.769776987707644 143.4266507060508 a86.0,86.0 0 0,1 -11.730757126820373,-40.83630448921669" fill="none" id="id57" stroke="none" /><text fill="#e1ed5e" style="font-size:6.75px; font-family:Arial;" text-anchor="middle"><textPath startOffset="21.46611528233685" xlink:href="#id57">September</textPath></text><line stroke="#e1ed5e" stroke-width="0.3" x1="15.007084014347285" x2="10.007500721073583" y1="101.09737516637583" y2="101.16192664675087" /><path d="M 14.007167355692545 101.11028546245083 a86.0,86.0 0 0,1 10.666146001902534,-42.60595125391555" fill="none" id="id58" stroke="none" /><text fill="#e1ed5e" style="font-size:6.75px; font-family:Arial;" text-anchor="middle"><textPath startOffset="22.20632615414155" xlink:href="#id58">October</textPath></text><line stroke="#e1ed5e" stroke-width="0.3" x1="26.266209847984243" x2="21.928928074336255" y1="57.711370442889674" y2="55.22380399835377" /><path d="M 25.398753493254645 57.213857153982495 a86.0,86.0 0 0,1 29.58750427330803,-30.492523968695096" fill="none" id="id59" stroke="none" /><text fill="#e1ed5e" style="font-size:6.75px; font-family:Arial;" text-anchor="middle"><textPath startOffset="21.46611528233685" xlink:href="#id59">November</textPath></text><line stroke="#e1ed5e" stroke-width="0.3" x1="56.762969772571076" x2="54.21961505331055" y1="26.818313649435495" y2="22.513508569990535" /><path d="M 56.25429882871897 25.957352633546506 a86.0,86.0 0 0,1 42.265352541879196,-11.944610805530505" fill="none" id="id60" stroke="none" /><text fill="#e1ed5e" style="font-size:6.75px; font-family:Arial;" text-anchor="middle"><textPath startOffset="22.20632615414155" xlink:href="#id60">December</textPath></text></svg>