<?xml version="1.0" encoding="utf-8" ?>
<svg baseProfile="full" height="200mm" version="1.1" viewBox="0,0,200,200" width="200mm" xmlns="http://www.w3.org/2000/svg" xmlns:ev="http://www.w3.org/2001/xml-events" xmlns:xlink="http://www.w3.org/1999/xlink"><defs /><rect fill="#1a1a1a" height="200" width="200" x="0" y="0" /><text alignment-baseline="middle" fill="#e1ed5e" style="dominant-baseline: central; font-size:9.0px; font-family:Arial;" text-anchor="middle" x="100.0" y="100.0">2021</text><line stroke="#e1ed5e" stroke-width="0.3" x1="100.0" x2="100.0" y1="15.0" y2="10.0" /><path d="M 100.0 14.0 a86.0,86.0 0 0,1 42.46469731375804,11.215312516191453" fill="none" id="id1" stroke="none" /><text fill="#e1ed5e" style="font-size:6.75px; font-family:Arial;" text-anchor="middle"><textPath startOffset="22.20632615414155" xlink:href="#id1">January</textPath></text><line stroke="#e1ed5e" stroke-width="0.3" x1="143.23703022742887" x2="145.7803849466894" y1="26.81831364943548" y2="22.513508569990506" /><path d="M 143.74570117128098 25.957352633546492 a86.0,86.0 0 0,1 28.547481713284135,27.462654790039103" fill="none" id="id2" stroke="none" /><text fill="#e1ed5e" style="font-size:6.75px; font-family:Arial;" text-anchor="middle"><textPath startOffset="19.985693538727396" xlink:href="#id2">February</textPath></text><line stroke="#e1ed5e" stroke-width="0.3" x1="172.23445277983987" x2="176.4835382374775" y1="55.19839476539836" y2="52.563006222186495" /><path d="M 173.08426987136738 54.67131705675599 a86.0,86.0 0 0,1 12.851231095245387,41.99856678651699" fill="none" id="id3" stroke="none" /><text fill="#e1ed5e" style="font-size:6.75px; font-family:Arial;" text-anchor="middle"><textPath startOffset="22.20632615414155" xlink:href="#id3">March</textPath></text><line stroke="#e1ed5e" stroke-width="0.3" x1="184.98032266829074" x2="189.97916517819016" y1="98.17113171792111" y2="98.06355123074" /><path d="M 185.9800911702706 98.14961562048488 a86.0,86.0 0 0,1 -9.607161424134198,41.387399972396054" fill="none" id="id4" stroke="none" /><text fill="#e1ed5e" style="font-size:6.75px; font-family:Arial;" text-anchor="middle"><textPath startOffset="21.466115282336823" xlink:href="#id4">April</textPath></text><line stroke="#e1ed5e" stroke-width="0.3" x1="174.80103733775053" x2="179.2010983576182" y1="140.37084112569926" y2="142.7455964860345" /><path d="M 175.68104954172406 140.8457921977663 a86.0,86.0 0 0,1 -30.038265399797805,32.042727171017184" fill="none" id="id5" stroke="none" /><text fill="#e1ed5e" style="font-size:6.75px; font-family:Arial;" text-anchor="middle"><textPath startOffset="22.206326154141568" xlink:href="#id5">May</textPath></text><line stroke="#e1ed5e" stroke-width="0.3" x1="143.8653032363475" x2="146.44561519142675" y1="172.8068346515853" y2="177.08958963109032" /><path d="M 144.38136562736335 173.6633856474863 a86.0,86.0 0 0,1 -40.68145358897372,12.25698825130547" fill="none" id="id6" stroke="none" /><text fill="#e1ed5e" style="font-size:6.75px; font-family:Arial;" text-anchor="middle"><textPath startOffset="21.466115282336833" xlink:href="#id6">June</textPath></text><line stroke="#e1ed5e" stroke-width="0.3" x1="102.19456741930631" x2="102.32365962044197" y1="184.97166512339345" y2="189.96999836594603" /><path d="M 102.22038585953345 185.97133177190398 a86.0,86.0 0 0,1 -42.740103519485714,-10.115201625700543" fill="none" id="id7" stroke="none" /><text fill="#e1ed5e" style="font-size:6.75px; font-family:Arial;" text-anchor="middle"><textPath startOffset="22.20632615414155" xlink:href="#id7">July</textPath></text><line stroke="#e1ed5e" stroke-width="0.3" x1="58.666819895761336" x2="56.23545636021788" y1="174.27360380694188" y2="178.64263932499728" /><path d="M 58.180547188652646 175.14741091055294 a86.0,86.0 0 0,1 -31.652253787137756,-30.449443065178592" fill="none" id="id8" stroke="none" /><text fill="#e1ed5e" style="font-size:6.75px; font-family:Arial;" text-anchor="middle"><textPath startOffset="22.20632615414155" xlink:href="#id8">August</textPath></text><line stroke="#e1ed5e" stroke-width="0.3" x1="26.63291911575756" x2="22.317208475507996" y1="142.92168965132927" y2="145.44649492493687" /><path d="M 25.769776987707644 143.4266507060508 a86.0,86.0 0 0,1 -11.730757126820373,-40.83630448921669" fill="none" id="id9" stroke="none" /><text fill="#e1ed5e" style="font-size:6.75px; font-family:Arial;" text-anchor="middle"><textPath startOffset="21.46611528233685" xlink:href="#id9">September</textPath></text><path d="M 81.02952815118164 109.00673069616217 l -4.325302316375716 2.0535510900067058 a25.78803845090167,25.78803845090167 0 0,0 -0.18693304924465662,-0.40263715772822184 l 4.360009982460199 -1.9787938649996566" fill="#ff0300" stroke="none" /><path d="M 80.87730276802145 108.67885076344099 l -8.807918612328049 3.997480598348638 a30.67260468620364,30.67260468620364 0 0,0 -0.2140639843464889,-0.48265777345990124 l 8.875423681405818 -3.845274488396041" fill="#ff4d07" stroke="none" /><path d="M 80.73074385275274 108.34839909993369 l -8.79126160670274 3.8088112962867755 a30.580883264512067,30.580883264512067 0 0,0 -0.2051089239085303,-0.4848169079231193 l 8.855521511803579 -3.6569198626974972" fill="#ff4b07" stroke="none" /><path d="M 80.58989483394504 108.01547362559985 l -4.270885805937248 1.7636778493764622 a25.62071694910405,25.62071694910405 0 0,0 -0.1648234228893044,-0.4090782185407209 l 4.30061184308394 -1.689900262992936" fill="#ff0000" stroke="none" /><path d="M 79.4281124754447 104.21870165774334 l -15.278002296430794 3.1330782621684814 a36.595946061929595,36.595946061929595 0 0,0 -0.12123725811177796,-0.6181861671633838 l 15.329669487518238 -2.869628367937143" fill="#ffa20e" stroke="none" /><path d="M 79.35854240842038 103.8639653848113 l -15.164811048890458 2.838767790508171 a36.428224029906254,36.428224029906254 0 0,0 -0.11007144828393371,-0.6173391369682573 l 15.211428939513581 -2.5773099028067" fill="#ff9f0e" stroke="none" /><path d="M 79.1416061653843 102.43462659150553 l -62.5751815038471 7.303879774516597 a84.0,84.0 0 0,0 -0.15527079399579247,-1.4376147124608716 l 62.69163459934394 -6.225668740170943" fill="#4dd2ff" stroke="none" /><line stroke="#e1ed5e" stroke-width="0.3" x1="15.007084014347285" x2="10.007500721073583" y1="101.09737516637583" y2="101.16192664675087" /><path d="M 14.007167355692545 101.11028546245083 a86.0,86.0 0 0,1 10.666146001902534,-42.60595125391555" fill="none" id="id10" stroke="none" /><text fill="#e1ed5e" style="font-size:6.75px; font-family:Arial;" text-anchor="middle"><textPath startOffset="22.20632615414155" xlink:href="#id10">October</textPath></text><path d="M 79.71946130924805 94.55025226153421 l -5.699326292982367 -1.531512108705611 a26.901512478423818,26.901512478423818 0 0,0 0.12402010950883591,-0.446166319865204 l 5.67211941290717 1.6293897319897575" fill="#ff1402" stroke="none" /><path d="M 80.52162464483688 92.15188598940014 l -29.615913000312688 -11.93267187413813 a52.9294685345362,52.9294685345362 0 0,0 0.3477675610669178,-0.8421467337990406 l 29.40612375235957 12.44069317839048" fill="#8dff24" stroke="none" /><line stroke="#e1ed5e" stroke-width="0.3" x1="26.266209847984243" x2="21.928928074336255" y1="57.711370442889674" y2="55.22380399835377" /><path d="M 25.398753493254645 57.213857153982495 a86.0,86.0 0 0,1 29.58750427330803,-30.492523968695096" fill="none" id="id11" stroke="none" /><text fill="#e1ed5e" style="font-size:6.75px; font-family:Arial;" text-anchor="middle"><textPath startOffset="21.46611528233685" xlink:href="#id11">November</textPath></text><path d="M 81.78341655067845 89.55222093294921 l -12.646559177804036 -7.2531963315547525 a35.57889968625132,35.57889968625132 0 0,0 0.3092659014626652,-0.5286356756145748 l 12.519833601871046 7.469811419523219" fill="#ff930d" stroke="none" /><path d="M 81.96595687620814 89.24020034530311 l -12.544942749181041 -7.4847924968502095 a35.608138392729416,35.608138392729416 0 0,0 0.31858126935389885,-0.5236638415132043 l 12.414245681540926 7.699624111570489" fill="#ff940d" stroke="none" /><path d="M 83.6137871275137 86.86637796730984 l -5.120447356969652 -4.10406118534226 a27.56218708576115,27.56218708576115 0 0,0 0.29990482432233345,-0.36764785347358936 l 5.049044040570926 4.191593208423932" fill="#ff1e03" stroke="none" /><path d="M 83.84228863543731 86.58626213691792 l -4.153028442923261 -3.4477429144745884 a26.39764545445876,26.39764545445876 0 0,0 0.29325192921214704,-0.3471177877672589 l 4.093065900223989 3.518719651870963" fill="#ff0c01" stroke="none" /><path d="M 84.07557802195018 86.31012108654704 l -3.869752537594198 -3.3267420153594593 a26.103155605992693,26.103155605992693 0 0,0 0.2958458771676137,-0.33820297973354996 l 3.811914796848741 3.392860551295952" fill="#ff0701" stroke="none" /><path d="M 85.05521093208273 85.24692304244772 l -4.562848860910211 -4.504316526969182 a27.411587720887653,27.411587720887653 0 0,0 0.3343746397459375,-0.3329387287789579 l 4.48463842099696 4.582191106398249" fill="#ff1c02" stroke="none" /><path d="M 85.31137513191541 84.99185889309783 l -8.142401715909832 -8.319520377089765 a32.641010480540906,32.641010480540906 0 0,0 0.40493000836206067,-0.38954234721867304 l 7.997988463935345 8.458445811070751" fill="#ff6909" stroke="none" /><path d="M 85.57189188830299 84.74124197986013 l -7.36423648786725 -7.788207691648237 a31.718589370690722,31.718589370690722 0 0,0 0.3999444001193895,-0.371704732395639 l 7.229084203953004 7.913817010118524" fill="#ff5c08" stroke="none" /><path d="M 85.83668400450813 84.49514656593479 l -7.72545736731624 -8.457206224127443 a32.4545636604648,32.4545636604648 0 0,0 0.41571052509676676,-0.3732290139982282 l 7.578735854623502 8.58893424689495" fill="#ff6709" stroke="none" /><path d="M 86.10567301691215 84.25364557470407 l -3.71708790548024 -4.212552623881397 a26.61803721116526,26.61803721116526 0 0,0 0.3461690966771512,-0.30019442943150054 l 3.6440250101563154 4.275912046732578" fill="#ff0f01" stroke="none" /><line stroke="#e1ed5e" stroke-width="0.3" x1="56.762969772571076" x2="54.21961505331055" y1="26.818313649435495" y2="22.513508569990535" /><path d="M 56.25429882871897 25.957352633546506 a86.0,86.0 0 0,1 42.265352541879196,-11.944610805530505" fill="none" id="id12" stroke="none" /><text fill="#e1ed5e" style="font-size:6.75px; font-family:Arial;" text-anchor="middle"><textPath startOffset="22.20632615414155" xlink:href="#id12">December</textPath></text><path d="M 89.63071344664047 81.73862282372117 l -3.12929742825587 -5.511013736583969 a27.337489629128083,27.337489629128083 0 0,0 0.4112025923373495,-0.22883379743613605 l 3.033970746846475 5.564062931580289" fill="#ff1a02" stroke="none" /><path d="M 91.56875222667455 80.76684994638697 l -4.882937195659536 -11.1388333389527 a33.162100304212245,33.162100304212245 0 0,0 0.5247764074703185,-0.2246818707156548 l 4.690477030398909 11.221234737631141" fill="#ff710a" stroke="none" /></svg>