<?xml version="1.0" encoding="utf-8" ?>
<svg baseProfile="full" height="200mm" version="1.1" viewBox="0,0,200,200" width="200mm" xmlns="http://www.w3.org/2000/svg" xmlns:ev="http://www.w3.org/2001/xml-events" xmlns:xlink="http://www.w3.org/1999/xlink"><defs /><rect fill="#1a1a1a" height="200" width="200" x="0" y="0" /><text alignment-baseline="middle" fill="#e1ed5e" style="dominant-baseline: central; font-size:9.0px; font-family:Arial;" text-anchor="middle" x="100.0" y="100.0">2023</text><line stroke="#e1ed5e" stroke-width="0.3" x1="100.0" x2="100.0" y1="15.0" y2="10.0" /><path d="M 100.0 14.0 a86.0,86.0 0 0,1 42.46469731375804,11.215312516191453" fill="none" id="id25" stroke="none" /><text fill="#e1ed5e" style="font-size:6.75px; font-family:Arial;" text-anchor="middle"><textPath startOffset="22.20632615414155" xlink:href="#id25">January</textPath></text><line stroke="#e1ed5e" stroke-width="0.3" x1="143.23703022742887" x2="145.7803849466894" y1="26.81831364943548" y2="22.513508569990506" /><path d="M 143.74570117128098 25.957352633546492 a86.0,86.0 0 0,1 28.547481713284135,27.462654790039103" fill="none" id="id26" stroke="none" /><text fill="#e1ed5e" style="font-size:6.75px; font-family:Arial;" text-anchor="middle"><textPath startOffset="19.985693538727396" xlink:href="#id26">February</textPath></text><line stroke="#e1ed5e" stroke-width="0.3" x1="172.23445277983987" x2="176.4835382374775" y1="55.19839476539836" y2="52.563006222186495" /><path d="M 173.08426987136738 54.67131705675599 a86.0,86.0 0 0,1 12.851231095245387,41.99856678651699" fill="none" id="id27" stroke="none" /><text fill="#e1ed5e" style="font-size:6.75px; font-family:Arial;" text-anchor="middle"><textPath startOffset="22.20632615414155" xlink:href="#id27">March</textPath></text><path d="M 120.45610955862082 95.25157060432595 l 1.713368132669801 -0.397720181516713 a22.758923449395706,22.758923449395706 0 0,0 0.08529785815516144,0.382373572880383 l -1.7199603778269998 0.36816843908636615" fill="#ff0f01" stroke="none" /><line stroke="#e1ed5e" stroke-width="0.3" x1="184.98032266829074" x2="189.97916517819016" y1="98.17113171792111" y2="98.06355123074" /><path d="M 185.9800911702706 98.14961562048488 a86.0,86.0 0 0,1 -9.607161424134198,41.387399972396054" fill="none" id="id28" stroke="none" /><text fill="#e1ed5e" style="font-size:6.75px; font-family:Arial;" text-anchor="middle"><textPath startOffset="21.466115282336823" xlink:href="#id28">April</textPath></text><path d="M 118.97047184881838 109.00673069616215 l 2.1813846313965053 1.0356697543587479 a23.414756871858195,23.414756871858195 0 0,0 -0.1759972913990979,0.36260654895791644 l -2.163234083382693 -1.0730652592819396" fill="#ff1902" stroke="none" /><path d="M 118.81262510543309 109.33194174019688 l 6.373679620877529 3.1616431284505713 a28.114757844176303,28.114757844176303 0 0,0 -0.21878814883486752,0.43168977408825177 l -6.318312802256393 -3.2708871142415172" fill="#ff5b08" stroke="none" /><path d="M 118.64920377521936 109.65438752849418 l 1.9276241478358074 0.9978994683525758 a23.170607796046554,23.170607796046554 0 0,0 -0.1864102890498478,0.35261801633069695 l -1.9101613505610666 -1.0309324997694072" fill="#ff1502" stroke="none" /><line stroke="#e1ed5e" stroke-width="0.3" x1="174.80103733775053" x2="179.2010983576182" y1="140.37084112569926" y2="142.7455964860345" /><path d="M 175.68104954172406 140.8457921977663 a86.0,86.0 0 0,1 -30.038265399797805,32.042727171017184" fill="none" id="id29" stroke="none" /><text fill="#e1ed5e" style="font-size:6.75px; font-family:Arial;" text-anchor="middle"><textPath startOffset="22.206326154141568" xlink:href="#id29">May</textPath></text><path d="M 117.75023020441432 111.22182372390056 l 3.997635114335771 2.527333789417253 a25.729535134714673,25.729535134714673 0 0,0 -0.23989132604506874,0.3723166653096123 l -3.953538924913652 -2.595772054648318" fill="#ff3a05" stroke="none" /><path d="M 117.35343817320211 111.8261652097733 l 4.6848780038965145 3.192689581668633 a26.66933405933085,26.66933405933085 0 0,0 -0.26179011093240023,0.37712818002722 l -4.629226985801978 -3.2728590238828725" fill="#ff4706" stroke="none" /><path d="M 116.93607887273984 112.41649034213515 l 1.9709894062798345 1.4450080866661168 a23.443940999737475,23.443940999737475 0 0,0 -0.2414041954980109,0.3234003695794029 l -1.9458239440867318 -1.4787213357548348" fill="#ff1902" stroke="none" /><path d="M 116.27256486870786 113.27417163493432 l 1.4359581428537747 1.1713675749713648 a22.853126488862095,22.853126488862095 0 0,0 -0.2512799200579562,0.30268285107771886 l -1.4155822229022752 -1.195911683162854" fill="#ff1101" stroke="none" /><path d="M 115.56566222782051 114.09645910891815 l 2.092393478979794 1.8948978003318508 a23.82289711902146,23.82289711902146 0 0,0 -0.2778811533929844,0.30158510981375003 l -2.0594659175910874 -1.9306341649469356" fill="#ff1f03" stroke="none" /><path d="M 115.32070863581623 114.36230785411682 l 2.153250669918113 2.0185521272919638 a23.951447295497196,23.951447295497196 0 0,0 -0.2845585326294557,0.298358483811963 l -2.1181855859096927 -2.055317727686434" fill="#ff2003" stroke="none" /><path d="M 112.63410532772338 116.77436683061366 l 3.0395127294696462 4.035576733602484 a26.0521794510292,26.0521794510292 0 0,0 -0.3605311858010344,0.2667123521722621 l -2.9695965732500476 -4.0872990345145155" fill="#ff3e05" stroke="none" /><path d="M 112.04921762599082 117.19931262002967 l 5.103271596279363 7.284519733463522 a29.894245821462953,29.894245821462953 0 0,0 -0.42399025272923235,0.2916243619767016 l -4.977124458927248 -7.371284884805318" fill="#ff730a" stroke="none" /><line stroke="#e1ed5e" stroke-width="0.3" x1="143.8653032363475" x2="146.44561519142675" y1="172.8068346515853" y2="177.08958963109032" /><path d="M 144.38136562736335 173.6633856474863 a86.0,86.0 0 0,1 -40.68145358897372,12.25698825130547" fill="none" id="id30" stroke="none" /><text fill="#e1ed5e" style="font-size:6.75px; font-family:Arial;" text-anchor="middle"><textPath startOffset="21.466115282336833" xlink:href="#id30">June</textPath></text><path d="M 110.5260780823613 118.17145234162733 l 1.35475212549492 2.3387451138522053 a23.70279152527541,23.70279152527541 0 0,0 -0.3548096068276227,0.2014701547186462 l -1.3142937517460982 -2.36171843436548" fill="#ff1d02" stroke="none" /><path d="M 109.89434966115114 118.52300852407294 l 2.6665015951668614 4.991902799904027 a26.659445584217334,26.659445584217334 0 0,0 -0.4066315692487932,0.21273041843614302 l -2.5801791233915727 -5.037062637284887" fill="#ff4706" stroke="none" /><path d="M 107.93186726928326 119.44442032107085 l 1.0544309106496892 2.584863958276337 a23.791656538353088,23.791656538353088 0 0,0 -0.3805293332039777,0.1514204749122797 l -1.0097805014038452 -2.6026312775946856" fill="#ff1e03" stroke="none" /><path d="M 107.59598834532513 119.57807347666477 l 2.0620077734104068 5.314665829118637 a26.700662148628545,26.700662148628545 0 0,0 -0.42991852370810746,0.16255839900065736 l -1.9702190289420243 -5.349372478225924" fill="#ff4706" stroke="none" /><path d="M 105.18746579009965 120.34920634021253 l 4.019915082972017 15.769179943249066 a37.27349849776853,37.27349849776853 0 0,0 -0.623082819703357,0.15313859755339826 l -3.747878978525449 -15.836039799116495" fill="#ffd313" stroke="none" /><path d="M 102.70371172650421 120.8252237178851 l 0.35588861964227686 2.741216842774305 a23.764222583060274,23.764222583060274 0 0,0 -0.4061108475030202,0.049174367980950456 l -0.30865034908787636 -2.7469367394806063" fill="#ff1e03" stroke="none" /><path d="M 102.34483914955558 120.86867818915974 l 0.6007728374222342 5.3467782689184284 a26.380424319620406,26.380424319620406 0 0,0 -0.451692413002301,0.04681976546653916 l -0.5086478278143305 -5.356327402840726" fill="#ff4306" stroke="none" /><path d="M 100.90346689309514 120.98055641714683 l 0.35191811789293803 8.172339222496978 a29.17991288029792,29.17991288029792 0 0,0 -0.5020051744551579,0.017290073232312825 l -0.21119259176312785 -8.177186094155385" fill="#ff6909" stroke="none" /><line stroke="#e1ed5e" stroke-width="0.3" x1="102.19456741930631" x2="102.32365962044197" y1="184.97166512339345" y2="189.96999836594603" /><path d="M 102.22038585953345 185.97133177190398 a86.0,86.0 0 0,1 -42.740103519485714,-10.115201625700543" fill="none" id="id31" stroke="none" /><text fill="#e1ed5e" style="font-size:6.75px; font-family:Arial;" text-anchor="middle"><textPath startOffset="22.20632615414155" xlink:href="#id31">July</textPath></text><path d="M 100.54218724476979 120.99299961872073 l 0.2342762308989857 9.070963718495298 a30.073988546092743,30.073988546092743 0 0,0 -0.5176167498221006,0.008911241763540677 l -0.07809979118421712 -9.073652437538" fill="#ff750a" stroke="none" /><path d="M 99.45781275523022 120.99299961872073 l -0.14038386196598676 5.435536134712783 a26.43734868299513,26.43734868299513 0 0,0 -0.45482266832606283,-0.015665012321054876 l 0.23392688196669262 -5.432314323965634" fill="#ff4306" stroke="none" /><path d="M 98.73552117531835 120.96189622390904 l -0.3510644779134033 5.819770968307277 a26.830349937285483,26.830349937285483 0 0,0 -0.46076301565323063,-0.03177691524512736 l 0.451190254345564 -5.812865708545865" fill="#ff4906" stroke="none" /><path d="M 98.01472825383883 120.90594882070398 l -1.1250486333267993 11.847349963355349 a32.9006485361751,32.9006485361751 0 0,0 -0.5633333697211651,-0.05839180710277604 l 1.3288145996535576 -11.826228787796813" fill="#ff9b0e" stroke="none" /><path d="M 95.86986931433489 120.58985236759428 l -0.7427653910313027 3.7028924528159712 a24.77665367001468,24.77665367001468 0 0,0 -0.41743769645991025,-0.08747812796387537 l 0.8063945489205997 -3.6895583441255546" fill="#ff2c04" stroke="none" /><path d="M 93.76903079525671 120.05430185196036 l -2.3187722977976786 7.462941648082525 a28.814870633076318,28.814870633076318 0 0,0 -0.4723973763301942,-0.15124672208346768 l 2.446891019218813 -7.421922079339351" fill="#ff6409" stroke="none" /><path d="M 93.42475214034765 119.94407469862007 l -1.1374930648444532 3.4502496542570684 a24.632920746351378,24.632920746351378 0 0,0 -0.4015521113159342,-0.13622827806935747 l 1.1967149090976132 -3.430158389289588" fill="#ff2a04" stroke="none" /><path d="M 93.08242187328487 119.8279376855182 l -2.566040413779388 7.3550726122553405 a28.78984316508989,28.78984316508989 0 0,0 -0.4665057372199071,-0.16727235988793246 l 2.6922657116290223 -7.30981271132745" fill="#ff6409" stroke="none" /><path d="M 92.7421414339146 119.70592522655815 l -0.2434041929406456 0.6608705284410274 a21.704269448792868,21.704269448792868 0 0,0 -0.34946951606093657,-0.13213946805644322 l 0.2547439297618651 -0.656582810277951" fill="#ff0000" stroke="none" /><path d="M 92.06813273071674 119.44442032107085 l -1.3079286417666511 3.206295995265205 a24.462803970947135,24.462803970947135 0 0,0 -0.3885258716680801,-0.16240384586763923 l 1.3629259729321936 -3.1833071063775926" fill="#ff2803" stroke="none" /><path d="M 90.7491055286396 118.85261126421891 l -4.808896429865146 9.800160977169346 a31.91643898217741,31.91643898217741 0 0,0 -0.4911272637034402,-0.24626140565565346 l 4.9768776012513465 -9.71593173060439" fill="#ff8e0d" stroke="none" /><path d="M 90.10565033884886 118.52300852407294 l -0.7877915974031384 1.4748084486225506 a22.672027380477797,22.672027380477797 0 0,0 -0.34264687139301114,-0.18683839436905864 l 0.8130612806647901 -1.461029402493726" fill="#ff0e01" stroke="none" /><line stroke="#e1ed5e" stroke-width="0.3" x1="58.666819895761336" x2="56.23545636021788" y1="174.27360380694188" y2="178.64263932499728" /><path d="M 58.180547188652646 175.14741091055294 a86.0,86.0 0 0,1 -31.652253787137756,-30.449443065178592" fill="none" id="id32" stroke="none" /><text fill="#e1ed5e" style="font-size:6.75px; font-family:Arial;" text-anchor="middle"><textPath startOffset="22.20632615414155" xlink:href="#id32">August</textPath></text><path d="M 89.1626897886671 117.98757091392108 l -0.6465770469758496 1.0731768544956444 a22.252904800334477,22.252904800334477 0 0,0 -0.3263979781156759,-0.20050029689492527 l 0.6649542250238342 -1.061888090772341" fill="#ff0801" stroke="none" /><path d="M 87.95078237400918 117.19931262002967 l -5.79488958161907 8.271750134036074 a31.099633436074946,31.099633436074946 0 0,0 -0.4357986778168513,-0.31093078544977687 l 5.936415587284809 -8.170775086742077" fill="#ff830c" stroke="none" /><path d="M 86.51685102203217 116.09983520530335 l -9.518075473884123 11.365256502881863 a35.824399350491504,35.824399350491504 0 0,0 -0.4693585258195564,-0.3999975182191903 l 9.712299476280736 -11.199734594439722" fill="#ffc111" stroke="none" /><path d="M 85.97065885151581 115.62618273729859 l -1.9070677980941286 2.1241332426117725 a23.854618997151107,23.854618997151107 0 0,0 -0.30318135988743616,-0.2769489838965104 l 1.9433487074484193 -2.090991492128686" fill="#ff1f03" stroke="none" /><path d="M 85.44109423537348 115.13401014063109 l -4.094368051195804 4.256103350625872 a26.905782375762055,26.905782375762055 0 0,0 -0.33100524562593536,-0.3239583002142464 l 4.167023249197533 -4.184994947489056" fill="#ff4a06" stroke="none" /><path d="M 85.18274418774928 114.88116024355367 l -4.882304200334459 4.903360789848986 a27.91952609215631,27.91952609215631 0 0,0 -0.33763930452903557,-0.3420268328934322 l 4.965984129919028 -4.818593462974889" fill="#ff5808" stroke="none" /><path d="M 84.9287848128048 114.62390073753433 l -2.082105306638915 2.0203083129786785 a23.901173587951035,23.901173587951035 0 0,0 -0.2839612487880038,-0.29773223409210964 l 2.116573106805876 -1.9841689623040688" fill="#ff2003" stroke="none" /><path d="M 84.67929136418377 114.36230785411682 l -8.457258701931277 7.9282072367779985 a32.592311880754906,32.592311880754906 0 0,0 -0.38017161271020916,-0.41260120079152074 l 8.592476722637215 -7.781454781185134" fill="#ff970d" stroke="none" /><path d="M 84.43433777217949 114.09645910891817 l -3.522532438363707 3.190049594451755 a25.75233113265336,25.75233113265336 0 0,0 -0.2947307089837533,-0.3311330759620436 l 3.576921996995799 -3.1289423487488475" fill="#ff3a05" stroke="none" /><path d="M 83.72743513129214 113.27417163493432 l -2.31815375773478 1.89100926034796 a23.99161375635653,23.99161375635653 0 0,0 -0.2582892443433526,-0.3222555461051959 l 2.3503609141329935 -1.8508258806645044" fill="#ff2103" stroke="none" /><path d="M 83.06392112726016 112.41649034213515 l -11.822125444126334 8.667254534151677 a35.6589205324414,35.6589205324414 0 0,0 -0.35866117135828507,-0.49814899762412923 l 11.969566407860226 -8.46247193107641" fill="#ffbe11" stroke="none" /><path d="M 82.85270091963577 112.12312394758628 l -1.7448025677276808 1.2335737362189976 a23.13682946512781,23.13682946512781 0 0,0 -0.22711452557551706,-0.32717541309327103 l 1.7657780004653316 -1.203357060938714" fill="#ff1502" stroke="none" /><path d="M 82.6465618267979 111.8261652097733 l -1.8991595563290542 1.2942550316945531 a23.298239131914396,23.298239131914396 0 0,0 -0.2229939864244283,-0.3333457534831284 l 1.9211566481642128 -1.2613723640056038" fill="#ff1702" stroke="none" /><path d="M 82.44556493220864 111.52570212397912 l -2.1236011908209718 1.3942912238991996 a23.540419263566267,23.540419263566267 0 0,0 -0.21948093361293255,-0.34063928299956364 l 2.1472869878109497 -1.3575303409781878" fill="#ff1b02" stroke="none" /><path d="M 82.24976979558568 111.22182372390057 l -7.630060208096054 4.823779166351785 a30.026996412146197,30.026996412146197 0 0,0 -0.272438313384632,-0.4392573074234934 l 7.711963161148641 -4.691725527563027" fill="#ff750a" stroke="none" /><line stroke="#e1ed5e" stroke-width="0.3" x1="26.63291911575756" x2="22.317208475507996" y1="142.92168965132927" y2="145.44649492493687" /><path d="M 25.769776987707644 143.4266507060508 a86.0,86.0 0 0,1 -11.730757126820373,-40.83630448921669" fill="none" id="id33" stroke="none" /><text fill="#e1ed5e" style="font-size:6.75px; font-family:Arial;" text-anchor="middle"><textPath startOffset="21.46611528233685" xlink:href="#id33">September</textPath></text><path d="M 81.18737489456691 109.33194174019688 l -2.4702628857733258 1.2253659020903884 a23.757484418602388,23.757484418602388 0 0,0 -0.17857340697633067,-0.36791411006724584 l 2.4909895493643757 -1.1826628360578577" fill="#ff1e03" stroke="none" /><path d="M 81.02952815118164 109.00673069616217 l -10.723286689616426 5.091162526731317 a32.87050181337327,32.87050181337327 0 0,0 -0.23827260634323416,-0.5132179963371437 l 10.809333912799486 -4.905824463115346" fill="#ff9a0e" stroke="none" /><path d="M 80.45479744820244 107.68017299344265 l -4.564254882090048 1.7934972527257251 a25.90398358727041,25.90398358727041 0 0,0 -0.15950158376904366,-0.41640830400967455 l 4.5944507454526 -1.7146653818828927" fill="#ff3c05" stroke="none" /><path d="M 80.32549172779594 107.34259656027581 l -11.804844338166609 4.405609951353732 a33.600148764669854,33.600148764669854 0 0,0 -0.1975620570977146,-0.543605931605656 l 11.878930656269548 -4.201756222741959" fill="#ffa40f" stroke="none" /><path d="M 80.20201598880116 107.00284435728193 l -7.449396111040992 2.6349633120146394 a28.901679193364902,28.901679193364902 0 0,0 -0.16186202258462046,-0.4704468035642017 l 7.493648964568841 -2.5063438053611407" fill="#ff6509" stroke="none" /><path d="M 80.0844068197444 106.66101706037122 l -5.421185635432497 1.8131827497287645 a26.716369947592057,26.716369947592057 0 0,0 -0.14211550227917305,-0.437386541742005 l 5.45159338872792 -1.7195973080089562" fill="#ff4706" stroke="none" /><path d="M 79.97269907076064 106.31721596034903 l -13.469938501777342 4.248825679955445 a35.12415529864751,35.12415529864751 0 0,0 -0.1769140604254214,-0.5781653856493103 l 13.541079334708895 -4.016333321754087" fill="#ffb811" stroke="none" /><path d="M 79.76711848015287 105.62410040840567 l -12.651983251920145 3.516850731541449 a34.13167617917878,34.13167617917878 0 0,0 -0.15247420000230383,-0.5674132200032281 l 12.710645528264223 -3.2985465783626817" fill="#ffab0f" stroke="none" /><path d="M 79.4281124754447 104.21870165774334 l -15.439952692287061 3.1662896241621494 a36.761266736025355,36.761266736025355 0 0,0 -0.1217849424154613,-0.6209787976284954 l 15.49216756767819 -2.9000470994656995" fill="#ffcc13" stroke="none" /><line stroke="#e1ed5e" stroke-width="0.3" x1="15.007084014347285" x2="10.007500721073583" y1="101.09737516637583" y2="101.16192664675087" /><path d="M 14.007167355692545 101.11028546245083 a86.0,86.0 0 0,1 10.666146001902534,-42.60595125391555" fill="none" id="id34" stroke="none" /><text fill="#e1ed5e" style="font-size:6.75px; font-family:Arial;" text-anchor="middle"><textPath startOffset="22.20632615414155" xlink:href="#id34">October</textPath></text><path d="M 79.00175016825051 100.2711162175752 l -5.928478034016647 0.07654478603878781 a26.928972162532695,26.928972162532695 0 0,0 -0.00199492738019762,-0.4635508665939354 l 5.928917258686348 0.025515558758822998" fill="#ff4a06" stroke="none" /><path d="M 79.00486145842228 99.54816195383935 l -3.40946557174897 -0.07337537970231879 a24.410255039038574,24.410255039038574 0 0,0 0.012656491203841987,-0.42000732640829025 l 3.407697386089483 0.13205285353560345" fill="#ff2703" stroke="none" /><path d="M 79.05617556472873 98.46500227214037 l -6.180652109177121 -0.45298732204326025 a27.19722986572287,27.19722986572287 0 0,0 0.03823867859358371,-0.4666087338629006 l 6.1719389467640395 0.5593099731139393" fill="#ff4e07" stroke="none" /><path d="M 79.26566170972629 96.67025291283419 l -15.011974963160435 -2.410787323250993 a36.20431806469805,36.20431806469805 0 0,0 0.104110065374137,-0.6144634991710659 l 14.968253036266075 2.668836610737887" fill="#ffc512" stroke="none" /><path d="M 79.32604984820605 96.31383870115002 l -21.654437140104978 -3.8609819385342914 a42.995950295098545,42.995950295098545 0 0,0 0.13618307184219292,-0.7274954152465752 l 21.584768344352923 4.233155431243439" fill="#e5ff1a" stroke="none" /><path d="M 79.3925641242962 95.95851677861259 l -12.594274270389736 -2.4699602830909178 a33.834190593794666,33.834190593794666 0 0,0 0.11700298776512555,-0.5705481211080913 l 12.549891986709616 2.6863840603624114" fill="#ffa70f" stroke="none" /><path d="M 79.91906864156998 93.8553929516997 l -4.423135796208682 -1.3534447632860258 a25.625574883078748,25.625574883078748 0 0,0 0.13269717827724117,-0.4206863179128025 l 4.399183134163237 1.4293812476252428" fill="#ff3805" stroke="none" /><path d="M 80.14247586403 93.16781622104843 l -11.56624535677884 -3.9794847217038622 a33.23169368090464,33.23169368090464 0 0,0 0.19076087108119877,-0.5393066706817187 l 11.49603140488783 4.177989018812192" fill="#ff9f0e" stroke="none" /><path d="M 80.2630227832202 92.82701384747504 l -21.798721504201648 -7.9222834264333075 a44.193680904644765,44.193680904644765 0 0,0 0.26599421350334945,-0.7127322481862565 l 21.659122702196672 8.296338811648905" fill="#d7ff1c" stroke="none" /><path d="M 80.38941819471856 92.48833698450439 l -13.338880601396601 -5.109342347744018 a35.28394605579162,35.28394605579162 0 0,0 0.22213167877152934,-0.5653008934131092 l 13.24895537274338 5.338192246052891" fill="#ffba11" stroke="none" /><path d="M 80.65960295795068 91.81776055985345 l -3.128053587477629 -1.323369079688724 a24.396472429920173,24.396472429920173 0 0,0 0.16695236834506846,-0.3853490844797128 l 3.10481050928988 1.3770173087550361" fill="#ff2703" stroke="none" /><path d="M 80.803312248108 91.48605970444005 l -19.21141999629794 -8.520474206561302 a42.01611617256702,42.01611617256702 0 0,0 0.2989100193514363,-0.6586086056163708 l 19.061907659983156 8.849904821019743" fill="#f1ff19" stroke="none" /><path d="M 81.6062741919709 89.86733742301443 l -7.549414566987536 -4.1587914955040235 a29.619118690870906,29.619118690870906 0 0,0 0.24984764513049168,-0.4444510819377266 l 7.476709280564613 4.288126087376535" fill="#ff6f0a" stroke="none" /><line stroke="#e1ed5e" stroke-width="0.3" x1="26.266209847984243" x2="21.928928074336255" y1="57.711370442889674" y2="55.22380399835377" /><path d="M 25.398753493254645 57.213857153982495 a86.0,86.0 0 0,1 29.58750427330803,-30.492523968695096" fill="none" id="id35" stroke="none" /><text fill="#e1ed5e" style="font-size:6.75px; font-family:Arial;" text-anchor="middle"><textPath startOffset="21.46611528233685" xlink:href="#id35">November</textPath></text><path d="M 81.78341655067845 89.55222093294921 l -54.64975034796462 -31.34333720115236 a84.0,84.0 0 0,0 0.7301613021187001,-1.2480823505844327 l 54.1021293713756 32.27939896409068" fill="#4dd2ff" stroke="none" /><path d="M 82.34701348167596 88.62581576622439 l -19.683513121765717 -12.682494510631853 a44.415515279979005,44.415515279979005 0 0,0 0.4196279844695019,-0.6391222093682652 l 19.462288501938293 13.019434783977786" fill="#d5ff1c" stroke="none" /><path d="M 84.5562425177563 85.77008943001954 l -7.724924893676446 -7.117762016349762 a31.504142075121294,31.504142075121294 0 0,0 0.3708977816312131,-0.395647893344214 l 7.601259790074777 7.249679326572027" fill="#ff880c" stroke="none" /><path d="M 84.80347519578584 85.50635884689758 l -11.040319207325348 -10.529672202575156 a36.256560716403975,36.256560716403975 0 0,0 0.4346224765493594,-0.44791666647838335 l 10.85743246707287 10.718153064603664" fill="#ffc612" stroke="none" /><path d="M 85.57189188830299 84.74124197986013 l -7.862080285923588 -8.31471317577408 a32.443197176388225,32.443197176388225 0 0,0 0.4090810874665041,-0.38019628753262324 l 7.717791314662228 8.448814049381351" fill="#ff950d" stroke="none" /><path d="M 86.93701828274178 83.55741782278169 l -9.947897259989281 -12.521575986881956 a36.9922020088092,36.9922020088092 0 0,0 0.5019796802607962,-0.3918031027133007 l 9.73088502456906 12.690957478818477" fill="#ffcf13" stroke="none" /><path d="M 87.22198572758235 83.33499621200491 l -10.64763822548838 -13.88658108983253 a38.49883807986621,38.49883807986621 0 0,0 0.5293660748283014,-0.39870755265100905 l 10.40702599690169 14.067805231989395" fill="#ffe215" stroke="none" /><path d="M 87.80319425747018 82.90503203632743 l -12.2633441852843 -17.188227836072933 a42.11456338055558,42.11456338055558 0 0,0 0.5937528946196573,-0.4159618469288496 l 11.965660151080982 17.396774525765725" fill="#f0ff19" stroke="none" /><path d="M 89.00827224532344 82.1063720568725 l -5.504329869179096 -8.96059590935826 a31.516174511653233,31.516174511653233 0 0,0 0.46469538840534746,-0.279973772002036 l 5.349272414556099 9.054016290818915" fill="#ff890c" stroke="none" /><line stroke="#e1ed5e" stroke-width="0.3" x1="56.762969772571076" x2="54.21961505331055" y1="26.818313649435495" y2="22.513508569990535" /><path d="M 56.25429882871897 25.957352633546506 a86.0,86.0 0 0,1 42.265352541879196,-11.944610805530505" fill="none" id="id36" stroke="none" /><text fill="#e1ed5e" style="font-size:6.75px; font-family:Arial;" text-anchor="middle"><textPath startOffset="22.20632615414155" xlink:href="#id36">December</textPath></text><path d="M 89.3179101791058 81.91981866633112 l -9.213632423853307 -15.594714869294554 a39.11314865771486,39.11314865771486 0 0,0 0.5826057477953754,-0.33748285372204706 l 8.943829943592611 15.75100188040665" fill="#ffea16" stroke="none" /><path d="M 89.63071344664047 81.73862282372117 l -7.553495554572973 -13.302480417682398 a36.2974272462979,36.2974272462979 0 0,0 0.5459753759888334,-0.3038347056227905 l 7.323396089512094 13.430530520865373" fill="#ffc712" stroke="none" /><path d="M 90.91171255644093 81.06846463323043 l -0.9569963686211377 -1.9934900508963376 a23.211299308681827,23.211299308681827 0 0,0 0.36167823227842993,-0.16981277963034822 l 0.9225399250430992 2.0096678131666934" fill="#ff1602" stroke="none" /><path d="M 91.23893434514133 80.91482961587045 l -5.490407676737045 -11.960344793301255 a34.16033525528212,34.16033525528212 0 0,0 0.536509019350567,-0.24071595812005775 l 5.283716538919704 12.053081081937842" fill="#ffab0f" stroke="none" /><path d="M 91.56875222667455 80.76684994638697 l -2.2174787465319032 -5.058456662568722 a26.523150894046495,26.523150894046495 0 0,0 0.41971780174619794,-0.17970125852948501 l 2.130077186995397 5.0958774490609935" fill="#ff4506" stroke="none" /><path d="M 91.90106846888425 80.62456947434976 l -5.186341654156655 -12.407513511668672 a34.447844856923396,34.447844856923396 0 0,0 0.5490594919775813,-0.22397515284047365 l 4.971998292590693 12.494949550692724" fill="#ffaf10" stroke="none" /><path d="M 92.57280143429618 80.3572730644239 l -6.690987433709195 -17.695667878951667 a39.91840306474667,39.91840306474667 0 0,0 0.6448108498331667,-0.23748927777616832 l 6.385394258103458 17.80822042453416" fill="#fff417" stroke="none" /><path d="M 92.91201910852362 80.23233633223022 l -1.0048203778207008 -2.802342667030476 a23.97704356957422,23.97704356957422 0 0,0 0.3897045933168745,-0.1359602805579834 l 0.9564337804405411 2.8192238007606694" fill="#ff2103" stroke="none" /><path d="M 93.25333710446033 80.11325718540243 l -6.053463944372933 -17.84344089264807 a39.84231431155017,39.84231431155017 0 0,0 0.6513595668939176,-0.21474300827701856 l 5.745421555236606 17.944997625184318" fill="#fff316" stroke="none" /><path d="M 93.94186890950719 79.89281104454417 l -2.6364935949100916 -8.750631853427562 a30.1391824749385,30.1391824749385 0 0,0 0.4980281499344041,-0.1453880737969303 l 2.4854752272522664 8.79471825614319" fill="#ff760a" stroke="none" /><path d="M 94.63758080256005 79.69619591428918 l -2.5380821985341133 -9.609976731596975 a30.939492644413548,30.939492644413548 0 0,0 0.5160871077111385,-0.13156209491436313 l 2.3722862021379756 9.652241822680201" fill="#ff810b" stroke="none" /><path d="M 95.692805502759 79.44645832069477 l -2.413101395998686 -11.51510110602591 a32.76522893229749,32.76522893229749 0 0,0 0.5530046540526411,-0.11092753120527954 l 2.2145303324789083 11.5549325933084" fill="#ff990e" stroke="none" /><path d="M 97.11714578562143 79.19881850522333 l -1.8218252005416942 -13.145346184768705 a34.27098991706127,34.27098991706127 0 0,0 0.5850307202248657,-0.07595377797928549 l 1.5952797518089707 13.174758285912127" fill="#ffad10" stroke="none" /><path d="M 97.83486435360386 79.11191278185805 l -3.280233329787714 -31.64596176803491 a52.815512363024695,52.815512363024695 0 0,0 0.9050940856813126,-0.0859495893408628 l 2.735014117016165 31.697736901890952" fill="#78ff26" stroke="none" /><path d="M 98.55514903715128 79.0497635885617 l -0.24063957674911318 -3.4892567832065353 a24.497544896788433,24.497544896788433 0 0,0 0.42093542423888036,-0.025391974314868723 l 0.18054210367060983 3.4928820269017105" fill="#ff2803" stroke="none" /></svg>